<?xml version="1.0" encoding="utf-8" standalone="no"?><svg xmlns="http://www.w3.org/2000/svg" xmlns:xlink="http://www.w3.org/1999/xlink" width="73.914mm" height="61.214mm" viewBox="4040 3040 291 241"><title>Photo View</title><style type="text/css">
path, polyline, polygon {stroke-linejoin:round;}
path, polyline, polygon, line {stroke-linecap:round;}
rect, circle, ellipse, polyline, polygon, line, path {shape-rendering:crispEdges;}
*[layerid="0"] {stroke:#FFFFFF; FILL:#FFFFFF;}*[layerid="1"] {stroke:#00BE00; fill:#00BE00;}*[layerid="2"] {stroke:#00BE00; fill:#00BE00;}*[layerid="3"] {stroke:#FFFFFF; fill:#FFFFFF;}*[layerid="4"] {stroke:#FFFFFF; fill:#FFFFFF;}*[layerid="5"] {stroke:#808080; fill:#808080;}*[layerid="6"] {stroke:#800000; fill:#800000;}*[layerid="7"] {stroke:#DCAA14; fill:#DCAA14;}*[layerid="8"] {stroke:#DCAA14; fill:#DCAA14;}*[layerid="9"] {display:none}*[layerid="10"] {stroke:#0B3B0B; fill:#0B3B0B;}*[layerid="11"] {stroke:#C0C0C0; fill:#C0C0C0;}*[layerid="12"] {stroke:#FFFFFF; fill:#FFFFFF;}*[layerid="13"] {stroke:#33CC99; fill:#33CC99;}*[layerid="14"] {stroke:#5555FF; fill:#5555FF;}*[layerid="15"] {stroke:#F022F0; fill:#F022F0;}*[layerid="16"] {stroke:#FFFFFF; FILL:#FFFFFF;}*[layerid="17"] {stroke:#FFFFFF; FILL:#FFFFFF;}*[layerid="18"] {stroke:#FFFFFF; FILL:#FFFFFF;}*[layerid="19"] {stroke:#FFFFFF; FILL:#FFFFFF;}*[layerid="20"] {stroke:#FFFFFF; FILL:#FFFFFF;}*[layerid="21"] {stroke:#800000; fill:#800000;}*[layerid="22"] {stroke:#008000; fill:#008000;}*[layerid="23"] {stroke:#00FF00; fill:#00FF00;}*[layerid="24"] {stroke:#BC8E00; fill:#BC8E00;}*[fill="none"] {fill: none;}
*[stroke="none"] {stroke: none;}
g[c_partid="part_pad"] > * + circle {fill: #111111;}
g[c_partid="part_via"] > * + circle {fill: #111111;}
g[c_partid="part_pad"] > polyline:nth-of-type(2) {stroke: #111111;}g[c_partid="part_pad"][c_shape="ELLIPSE"]  polyline:nth-last-of-type(1) {stroke:#111111;}g[c_partid="part_pad"][c_shape="RECT"]  polyline:nth-last-of-type(1) {stroke:#111111;}g[c_partid="part_pad"][c_shape="POLYGON"]  polyline:nth-last-of-type(1) {stroke:#111111;}g[c_partid="part_pad"] > polygon[c_padid], #gCurParts g[c_partid="part_pad"] > polygon[c_padid] {stroke-linejoin: miter;stroke-miterlimit: 100;}</style>
<rect x="4040" y="3040" width="291" height="241" fill="#111111" stroke="none"/><g style="pointer-events: none;"><path d="M4050,3271 4050,3050 4321,3050 4320,3270z" layerid="10" stroke="none"/><g c_partid="part_via" c_etype="pinpart" c_shapetype="group" c_origin="4166,3208.811" layerid="1" locked="0" solderExpansion=""><circle cx="4166" cy="3208.811" r="4.5276" stroke-width="0"/><circle cx="4166" cy="3208.811" r="4.5276" stroke-width="0"/></g><g c_partid="part_via" c_etype="pinpart" c_shapetype="group" c_origin="4143,3208.811" layerid="1" locked="0" solderExpansion=""><circle cx="4143" cy="3208.811" r="4.5276" stroke-width="0"/><circle cx="4143" cy="3208.811" r="4.5276" stroke-width="0"/></g><g c_partid="part_via" c_etype="pinpart" c_shapetype="group" c_origin="4133,3138.811" layerid="1" locked="0" solderExpansion=""><circle cx="4133" cy="3138.811" r="4.5276" stroke-width="0"/><circle cx="4133" cy="3138.811" r="4.5276" stroke-width="0"/></g><g c_partid="part_via" c_etype="pinpart" c_shapetype="group" c_origin="4083,3193.811" layerid="1" locked="0" solderExpansion=""><circle cx="4083" cy="3193.811" r="2.5591" stroke-width="0"/><circle cx="4083" cy="3193.811" r="2.5591" stroke-width="0"/></g><g c_partid="part_via" c_etype="pinpart" c_shapetype="group" c_origin="4083,3153.811" layerid="1" locked="0" solderExpansion=""><circle cx="4083" cy="3153.811" r="2.5591" stroke-width="0"/><circle cx="4083" cy="3153.811" r="2.5591" stroke-width="0"/></g><g c_partid="part_via" c_etype="pinpart" c_shapetype="group" c_origin="4065,3066" layerid="1" locked="0" solderExpansion=""><circle cx="4065" cy="3066" r="8" stroke-width="0"/><circle cx="4065" cy="3066" r="8" stroke-width="0"/></g><g c_partid="part_via" c_etype="pinpart" c_shapetype="group" c_origin="4067,3254" layerid="1" locked="0" solderExpansion=""><circle cx="4067" cy="3254" r="8" stroke-width="0"/><circle cx="4067" cy="3254" r="8" stroke-width="0"/></g><g c_partid="part_via" c_etype="pinpart" c_shapetype="group" c_origin="4305,3254" layerid="1" locked="0" solderExpansion=""><circle cx="4305" cy="3254" r="8" stroke-width="0"/><circle cx="4305" cy="3254" r="8" stroke-width="0"/></g><g c_partid="part_via" c_etype="pinpart" c_shapetype="group" c_origin="4307,3066" layerid="1" locked="0" solderExpansion=""><circle cx="4307" cy="3066" r="8" stroke-width="0"/><circle cx="4307" cy="3066" r="8" stroke-width="0"/></g><polyline points="4154 3057 4187 3057 4187 3059" stroke-width="1" c_shapetype="line" stroke-linecap="round" fill="none" layerid="1" locked="0"/><polyline points="4062.5 3107 4062.5 3103.5 4079 3087" stroke-width="3" c_shapetype="line" stroke-linecap="round" fill="none" layerid="1" locked="0"/><polyline points="4109.5 3087 4109.5 3071.5 4124 3057" stroke-width="1" c_shapetype="line" stroke-linecap="round" fill="none" layerid="1" locked="0"/><polyline points="4122.5 3107 4122.5 3100 4109.5 3087" stroke-width="3" c_shapetype="line" stroke-linecap="round" fill="none" layerid="1" locked="0"/><polyline points="4156.5 3109 4156.5 3089.5 4154 3087" stroke-width="1" c_shapetype="line" stroke-linecap="round" fill="none" layerid="1" locked="0"/><polyline points="4204 3116 4204 3123 4156 3123 4156 3117 4156 3109.5 4156.5 3109" stroke-width="3" c_shapetype="line" stroke-linecap="round" fill="none" layerid="1" locked="0"/><polyline points="4187 3076 4191 3076 4208 3059" stroke-width="1" c_shapetype="line" stroke-linecap="round" fill="none" layerid="1" locked="0"/><polyline points="4187 3076 4134 3076 4134 3057" stroke-width="1" c_shapetype="line" stroke-linecap="round" fill="none" layerid="1" locked="0"/><polyline points="4276.76 3253 4276.76 3097.76 4275 3096 4308.17 3096 4308.34 3095.83" stroke-width="20" c_shapetype="line" stroke-linecap="round" fill="none" layerid="1" locked="0"/><polyline points="4276.76 3190.895 4187.105 3190.895 4187 3191 4185 3191 4133 3139" stroke-width="20" c_shapetype="line" stroke-linecap="round" fill="none" layerid="1" locked="0"/><polyline points="4133 3139 4133 3167 4117 3183 4117 3200 4101 3216 4101 3240.46 4091.46 3250" stroke-width="20" c_shapetype="line" stroke-linecap="round" fill="none" layerid="1" locked="0"/><polyline points="4225.66 3110.59 4244.41 3110.59 4248 3107 4248 3059" stroke-width="1" c_shapetype="line" stroke-linecap="round" fill="none" layerid="1" locked="0"/><polyline points="4204 3116 4220.2502 3116 4225.6602 3110.5901" stroke-width="3" c_shapetype="line" stroke-linecap="round" fill="none" layerid="1" locked="0"/><polyline points="4225.66 3125.35 4225.65 3125.35 4222 3129 4153 3129 4152 3130 4152 3129 4130 3107 4122.5 3107" stroke-width="3" c_shapetype="line" stroke-linecap="round" fill="none" layerid="1" locked="0"/><g c_partid="part_pcbtext" c_origin="4224.86,3237.56" c_rotation="0" c_mirror="" locked="0" layerid="3" c_shapetype="group"><path c_fontSize="6" c_fontFamily="NotoSansCJKjp-DemiLight" c_text="markus@gutschke.com 11/2018" d="M 4225.0002 3236.78 L 4225.4902 3236.78 L 4225.4902 3234.41 C 4225.7902 3234.06 4226.0802 3233.88 4226.3302 3233.88 C 4226.7702 3233.88 4226.9702 3234.16 4226.9702 3234.78 L 4226.9702 3236.78 L 4227.4502 3236.78 L 4227.4502 3234.41 C 4227.7702 3234.06 4228.0402 3233.88 4228.3102 3233.88 C 4228.7402 3233.88 4228.9402 3234.16 4228.9402 3234.78 L 4228.9402 3236.78 L 4229.4302 3236.78 L 4229.4302 3234.72 C 4229.4302 3233.89 4229.1002 3233.46 4228.4402 3233.46 C 4228.0502 3233.46 4227.7102 3233.71 4227.3602 3234.09 C 4227.2402 3233.7 4226.9702 3233.46 4226.4702 3233.46 C 4226.0902 3233.46 4225.7402 3233.71 4225.4602 3234.02 L 4225.4402 3234.02 L 4225.4002 3233.54 L 4225.0002 3233.54 Z  M 4231.2502 3236.86 C 4231.6502 3236.86 4232.0302 3236.65 4232.3402 3236.38 L 4232.3602 3236.38 L 4232.4002 3236.78 L 4232.8002 3236.78 L 4232.8002 3234.77 C 4232.8002 3233.99 4232.4902 3233.46 4231.7002 3233.46 C 4231.1802 3233.46 4230.7202 3233.7 4230.4402 3233.88 L 4230.6402 3234.22 C 4230.8902 3234.05 4231.2302 3233.86 4231.6202 3233.86 C 4232.1802 3233.86 4232.3202 3234.3 4232.3102 3234.73 C 4230.9202 3234.89 4230.3002 3235.24 4230.3002 3235.95 C 4230.3002 3236.53 4230.7102 3236.86 4231.2502 3236.86 Z  M 4231.3802 3236.46 C 4231.0502 3236.46 4230.7802 3236.31 4230.7802 3235.92 C 4230.7802 3235.47 4231.1702 3235.2 4232.3102 3235.06 L 4232.3102 3236.01 C 4231.9802 3236.31 4231.7102 3236.46 4231.3802 3236.46 Z  M 4233.8702 3236.78 L 4234.3502 3236.78 L 4234.3502 3234.67 C 4234.5802 3234.1 4234.9102 3233.9 4235.1902 3233.9 C 4235.3102 3233.9 4235.3902 3233.92 4235.4902 3233.95 L 4235.5902 3233.53 C 4235.4802 3233.47 4235.3902 3233.46 4235.2502 3233.46 C 4234.8802 3233.46 4234.5502 3233.73 4234.3302 3234.13 L 4234.3102 3234.13 L 4234.2602 3233.54 L 4233.8702 3233.54 Z  M 4236.1402 3236.78 L 4236.6202 3236.78 L 4236.6202 3235.92 L 4237.2502 3235.18 L 4238.2302 3236.78 L 4238.7602 3236.78 L 4237.5302 3234.84 L 4238.6102 3233.54 L 4238.0702 3233.54 L 4236.6302 3235.31 L 4236.6202 3235.31 L 4236.6202 3232 L 4236.1402 3232 Z  M 4240.2502 3236.86 C 4240.7002 3236.86 4241.0202 3236.62 4241.3302 3236.26 L 4241.3402 3236.26 L 4241.3902 3236.78 L 4241.7902 3236.78 L 4241.7902 3233.54 L 4241.3002 3233.54 L 4241.3002 3235.86 C 4240.9802 3236.26 4240.7302 3236.43 4240.3902 3236.43 C 4239.9302 3236.43 4239.7502 3236.16 4239.7502 3235.54 L 4239.7502 3233.54 L 4239.2602 3233.54 L 4239.2602 3235.6 C 4239.2602 3236.43 4239.5702 3236.86 4240.2502 3236.86 Z  M 4243.7502 3236.86 C 4244.5002 3236.86 4244.9102 3236.43 4244.9102 3235.91 C 4244.9102 3235.29 4244.3802 3235.11 4243.9102 3234.92 C 4243.5302 3234.79 4243.1702 3234.66 4243.1702 3234.34 C 4243.1702 3234.07 4243.3702 3233.85 4243.8002 3233.85 C 4244.1002 3233.85 4244.3302 3233.97 4244.5502 3234.13 L 4244.7902 3233.82 C 4244.5402 3233.62 4244.1902 3233.46 4243.8002 3233.46 C 4243.1102 3233.46 4242.7102 3233.86 4242.7102 3234.36 C 4242.7102 3234.91 4243.2202 3235.13 4243.6802 3235.3 C 4244.0502 3235.43 4244.4402 3235.59 4244.4402 3235.93 C 4244.4402 3236.23 4244.2202 3236.47 4243.7702 3236.47 C 4243.3602 3236.47 4243.0702 3236.32 4242.7902 3236.08 L 4242.5402 3236.41 C 4242.8502 3236.67 4243.2902 3236.86 4243.7502 3236.86 Z  M 4247.8002 3237.8 C 4248.2602 3237.8 4248.6802 3237.69 4249.0702 3237.46 L 4248.9302 3237.16 C 4248.6202 3237.34 4248.2502 3237.46 4247.8402 3237.46 C 4246.6802 3237.46 4245.8402 3236.71 4245.8402 3235.41 C 4245.8402 3233.83 4246.9902 3232.81 4248.1902 3232.81 C 4249.3902 3232.81 4250.0402 3233.59 4250.0402 3234.69 C 4250.0402 3235.58 4249.5502 3236.1 4249.1302 3236.1 C 4248.7502 3236.1 4248.6202 3235.84 4248.7602 3235.29 L 4249.0202 3233.97 L 4248.6802 3233.97 L 4248.6202 3234.24 L 4248.6002 3234.24 C 4248.4802 3234.02 4248.2902 3233.92 4248.0602 3233.92 C 4247.2802 3233.92 4246.7902 3234.76 4246.7902 3235.45 C 4246.7902 3236.06 4247.1302 3236.4 4247.5802 3236.4 C 4247.8802 3236.4 4248.1702 3236.19 4248.3902 3235.93 L 4248.4102 3235.93 C 4248.4502 3236.28 4248.7202 3236.44 4249.0902 3236.44 C 4249.6802 3236.44 4250.4002 3235.83 4250.4002 3234.67 C 4250.4002 3233.37 4249.5602 3232.48 4248.2302 3232.48 C 4246.7602 3232.48 4245.4702 3233.64 4245.4702 3235.42 C 4245.4702 3236.96 4246.4902 3237.8 4247.8002 3237.8 Z  M 4247.6702 3236.05 C 4247.3902 3236.05 4247.1802 3235.87 4247.1802 3235.42 C 4247.1802 3234.91 4247.5202 3234.27 4248.0602 3234.27 C 4248.2502 3234.27 4248.3802 3234.34 4248.5102 3234.55 L 4248.3102 3235.64 C 4248.0802 3235.93 4247.8702 3236.05 4247.6702 3236.05 Z  M 4252.3902 3238.29 C 4253.3702 3238.29 4254.0002 3237.76 4254.0002 3237.18 C 4254.0002 3236.64 4253.6302 3236.41 4252.8902 3236.41 L 4252.2402 3236.41 C 4251.8002 3236.41 4251.6602 3236.25 4251.6602 3236.04 C 4251.6602 3235.86 4251.7602 3235.74 4251.8802 3235.63 C 4252.0302 3235.71 4252.2202 3235.75 4252.3802 3235.75 C 4253.0302 3235.75 4253.5502 3235.31 4253.5502 3234.62 C 4253.5502 3234.33 4253.4302 3234.07 4253.2702 3233.92 L 4253.9502 3233.92 L 4253.9502 3233.54 L 4252.8302 3233.54 C 4252.7102 3233.5 4252.5602 3233.46 4252.3802 3233.46 C 4251.7202 3233.46 4251.1802 3233.91 4251.1802 3234.61 C 4251.1802 3235 4251.3902 3235.32 4251.6002 3235.48 L 4251.6002 3235.51 C 4251.4402 3235.63 4251.2402 3235.84 4251.2402 3236.11 C 4251.2402 3236.37 4251.3602 3236.54 4251.5302 3236.64 L 4251.5302 3236.67 C 4251.2302 3236.86 4251.0502 3237.13 4251.0502 3237.41 C 4251.0502 3237.97 4251.5902 3238.29 4252.3902 3238.29 Z  M 4252.3802 3235.42 C 4251.9902 3235.42 4251.6502 3235.1 4251.6502 3234.61 C 4251.6502 3234.12 4251.9802 3233.82 4252.3802 3233.82 C 4252.7702 3233.82 4253.1002 3234.12 4253.1002 3234.61 C 4253.1002 3235.1 4252.7702 3235.42 4252.3802 3235.42 Z  M 4252.4602 3237.94 C 4251.8402 3237.94 4251.4802 3237.71 4251.4802 3237.35 C 4251.4802 3237.15 4251.5902 3236.94 4251.8402 3236.77 C 4251.9902 3236.8 4252.1502 3236.82 4252.2502 3236.82 L 4252.8502 3236.82 C 4253.2902 3236.82 4253.5202 3236.93 4253.5202 3237.25 C 4253.5202 3237.6 4253.1002 3237.94 4252.4602 3237.94 Z  M 4255.5902 3236.86 C 4256.0402 3236.86 4256.3602 3236.62 4256.6702 3236.26 L 4256.6902 3236.26 L 4256.7302 3236.78 L 4257.1302 3236.78 L 4257.1302 3233.54 L 4256.6402 3233.54 L 4256.6402 3235.86 C 4256.3202 3236.26 4256.0702 3236.43 4255.7302 3236.43 C 4255.2802 3236.43 4255.0902 3236.16 4255.0902 3235.54 L 4255.0902 3233.54 L 4254.6002 3233.54 L 4254.6002 3235.6 C 4254.6002 3236.43 4254.9102 3236.86 4255.5902 3236.86 Z  M 4259.2502 3236.86 C 4259.4302 3236.86 4259.6402 3236.8 4259.8202 3236.74 L 4259.7302 3236.37 C 4259.6202 3236.41 4259.4702 3236.46 4259.3502 3236.46 C 4258.9602 3236.46 4258.8402 3236.22 4258.8402 3235.82 L 4258.8402 3233.94 L 4259.7302 3233.94 L 4259.7302 3233.54 L 4258.8402 3233.54 L 4258.8402 3232.62 L 4258.4302 3232.62 L 4258.3702 3233.54 L 4257.8602 3233.57 L 4257.8602 3233.94 L 4258.3502 3233.94 L 4258.3502 3235.8 C 4258.3502 3236.44 4258.5702 3236.86 4259.2502 3236.86 Z  M 4261.2402 3236.86 C 4261.9902 3236.86 4262.4002 3236.43 4262.4002 3235.91 C 4262.4002 3235.29 4261.8702 3235.11 4261.4002 3234.92 C 4261.0202 3234.79 4260.6602 3234.66 4260.6602 3234.34 C 4260.6602 3234.07 4260.8602 3233.85 4261.2902 3233.85 C 4261.5902 3233.85 4261.8202 3233.97 4262.0402 3234.13 L 4262.2802 3233.82 C 4262.0302 3233.62 4261.6802 3233.46 4261.2902 3233.46 C 4260.6002 3233.46 4260.2002 3233.86 4260.2002 3234.36 C 4260.2002 3234.91 4260.7102 3235.13 4261.1702 3235.3 C 4261.5402 3235.43 4261.9302 3235.59 4261.9302 3235.93 C 4261.9302 3236.23 4261.7102 3236.47 4261.2602 3236.47 C 4260.8502 3236.47 4260.5602 3236.32 4260.2802 3236.08 L 4260.0302 3236.41 C 4260.3402 3236.67 4260.7802 3236.86 4261.2402 3236.86 Z  M 4264.4402 3236.86 C 4264.8402 3236.86 4265.2002 3236.7 4265.4902 3236.44 L 4265.2702 3236.12 C 4265.0702 3236.3 4264.7902 3236.45 4264.4902 3236.45 C 4263.8602 3236.45 4263.4402 3235.93 4263.4402 3235.17 C 4263.4402 3234.39 4263.8902 3233.87 4264.5002 3233.87 C 4264.7702 3233.87 4264.9802 3233.99 4265.1702 3234.17 L 4265.4302 3233.85 C 4265.2002 3233.64 4264.9102 3233.46 4264.4802 3233.46 C 4263.6602 3233.46 4262.9402 3234.08 4262.9402 3235.17 C 4262.9402 3236.23 4263.5902 3236.86 4264.4402 3236.86 Z  M 4266.2302 3236.78 L 4266.7102 3236.78 L 4266.7102 3234.41 C 4267.0502 3234.06 4267.2902 3233.88 4267.6402 3233.88 C 4268.0902 3233.88 4268.2802 3234.16 4268.2802 3234.78 L 4268.2802 3236.78 L 4268.7702 3236.78 L 4268.7702 3234.72 C 4268.7702 3233.89 4268.4602 3233.46 4267.7802 3233.46 C 4267.3402 3233.46 4267.0102 3233.71 4266.6902 3234.01 L 4266.7102 3233.33 L 4266.7102 3232 L 4266.2302 3232 Z  M 4269.8402 3236.78 L 4270.3102 3236.78 L 4270.3102 3235.92 L 4270.9502 3235.18 L 4271.9302 3236.78 L 4272.4602 3236.78 L 4271.2302 3234.84 L 4272.3102 3233.54 L 4271.7702 3233.54 L 4270.3302 3235.31 L 4270.3102 3235.31 L 4270.3102 3232 L 4269.8402 3232 Z  M 4274.2702 3236.86 C 4274.7202 3236.86 4275.0502 3236.71 4275.3302 3236.53 L 4275.1502 3236.2 C 4274.9102 3236.37 4274.6402 3236.47 4274.3302 3236.47 C 4273.6802 3236.47 4273.2502 3235.99 4273.2202 3235.27 L 4275.4302 3235.27 C 4275.4502 3235.19 4275.4502 3235.08 4275.4502 3234.97 C 4275.4502 3234.04 4274.9902 3233.46 4274.1802 3233.46 C 4273.4302 3233.46 4272.7302 3234.11 4272.7302 3235.17 C 4272.7302 3236.23 4273.4102 3236.86 4274.2702 3236.86 Z  M 4273.2102 3234.91 C 4273.2802 3234.24 4273.7002 3233.85 4274.1802 3233.85 C 4274.7102 3233.85 4275.0202 3234.22 4275.0202 3234.91 Z  M 4276.5102 3236.86 C 4276.7102 3236.86 4276.8802 3236.7 4276.8802 3236.47 C 4276.8802 3236.23 4276.7102 3236.08 4276.5102 3236.08 C 4276.3102 3236.08 4276.1402 3236.23 4276.1402 3236.47 C 4276.1402 3236.7 4276.3102 3236.86 4276.5102 3236.86 Z  M 4279.0702 3236.86 C 4279.4702 3236.86 4279.8302 3236.7 4280.1202 3236.44 L 4279.9002 3236.12 C 4279.7002 3236.3 4279.4202 3236.45 4279.1102 3236.45 C 4278.4902 3236.45 4278.0702 3235.93 4278.0702 3235.17 C 4278.0702 3234.39 4278.5202 3233.87 4279.1302 3233.87 C 4279.4002 3233.87 4279.6102 3233.99 4279.8002 3234.17 L 4280.0602 3233.85 C 4279.8302 3233.64 4279.5302 3233.46 4279.1102 3233.46 C 4278.2902 3233.46 4277.5702 3234.08 4277.5702 3235.17 C 4277.5702 3236.23 4278.2202 3236.86 4279.0702 3236.86 Z  M 4281.9502 3236.86 C 4282.7402 3236.86 4283.4502 3236.23 4283.4502 3235.17 C 4283.4502 3234.08 4282.7402 3233.46 4281.9502 3233.46 C 4281.1602 3233.46 4280.4602 3234.08 4280.4602 3235.17 C 4280.4602 3236.23 4281.1602 3236.86 4281.9502 3236.86 Z  M 4281.9502 3236.45 C 4281.3702 3236.45 4280.9702 3235.93 4280.9702 3235.17 C 4280.9702 3234.39 4281.3702 3233.87 4281.9502 3233.87 C 4282.5302 3233.87 4282.9402 3234.39 4282.9402 3235.17 C 4282.9402 3235.93 4282.5302 3236.45 4281.9502 3236.45 Z  M 4284.3302 3236.78 L 4284.8102 3236.78 L 4284.8102 3234.41 C 4285.1202 3234.06 4285.4102 3233.88 4285.6602 3233.88 C 4286.1002 3233.88 4286.3002 3234.16 4286.3002 3234.78 L 4286.3002 3236.78 L 4286.7802 3236.78 L 4286.7802 3234.41 C 4287.0902 3234.06 4287.3702 3233.88 4287.6302 3233.88 C 4288.0702 3233.88 4288.2602 3234.16 4288.2602 3234.78 L 4288.2602 3236.78 L 4288.7602 3236.78 L 4288.7602 3234.72 C 4288.7602 3233.89 4288.4302 3233.46 4287.7702 3233.46 C 4287.3802 3233.46 4287.0402 3233.71 4286.6902 3234.09 C 4286.5702 3233.7 4286.3002 3233.46 4285.8002 3233.46 C 4285.4202 3233.46 4285.0702 3233.71 4284.7902 3234.02 L 4284.7702 3234.02 L 4284.7202 3233.54 L 4284.3302 3233.54 Z  M 4291.1402 3236.78 L 4293.5102 3236.78 L 4293.5102 3236.37 L 4292.6102 3236.37 L 4292.6102 3232.39 L 4292.2402 3232.39 C 4292.0102 3232.53 4291.7302 3232.62 4291.3502 3232.69 L 4291.3502 3233.01 L 4292.1302 3233.01 L 4292.1302 3236.37 L 4291.1402 3236.37 Z  M 4294.4402 3236.78 L 4296.8002 3236.78 L 4296.8002 3236.37 L 4295.9102 3236.37 L 4295.9102 3232.39 L 4295.5402 3232.39 C 4295.3102 3232.53 4295.0302 3232.62 4294.6502 3232.69 L 4294.6502 3233.01 L 4295.4202 3233.01 L 4295.4202 3236.37 L 4294.4402 3236.37 Z  M 4297.2602 3237.85 L 4297.6202 3237.85 L 4299.4802 3232.03 L 4299.1102 3232.03 Z  M 4299.8202 3236.78 L 4302.5402 3236.78 L 4302.5402 3236.36 L 4301.2802 3236.36 C 4301.0602 3236.36 4300.7902 3236.37 4300.5602 3236.4 C 4301.6302 3235.39 4302.3302 3234.48 4302.3302 3233.59 C 4302.3302 3232.81 4301.8502 3232.31 4301.0702 3232.31 C 4300.5202 3232.31 4300.1402 3232.57 4299.7902 3232.95 L 4300.0802 3233.23 C 4300.3302 3232.93 4300.6502 3232.71 4301.0102 3232.71 C 4301.5802 3232.71 4301.8502 3233.1 4301.8502 3233.61 C 4301.8502 3234.37 4301.2202 3235.26 4299.8202 3236.49 Z  M 4304.4902 3236.86 C 4305.3202 3236.86 4305.8302 3236.1 4305.8302 3234.57 C 4305.8302 3233.05 4305.3202 3232.31 4304.4902 3232.31 C 4303.6702 3232.31 4303.1402 3233.04 4303.1402 3234.57 C 4303.1402 3236.1 4303.6702 3236.86 4304.4902 3236.86 Z  M 4304.4902 3236.46 C 4303.9702 3236.46 4303.6202 3235.87 4303.6202 3234.57 C 4303.6202 3233.28 4303.9702 3232.71 4304.4902 3232.71 C 4305.0102 3232.71 4305.3602 3233.28 4305.3602 3234.57 C 4305.3602 3235.87 4305.0102 3236.46 4304.4902 3236.46 Z  M 4306.6702 3236.78 L 4309.0402 3236.78 L 4309.0402 3236.37 L 4308.1402 3236.37 L 4308.1402 3232.39 L 4307.7702 3232.39 C 4307.5402 3232.53 4307.2602 3232.62 4306.8802 3232.69 L 4306.8802 3233.01 L 4307.6602 3233.01 L 4307.6602 3236.37 L 4306.6702 3236.37 Z  M 4311.0902 3236.86 C 4311.9002 3236.86 4312.4502 3236.36 4312.4502 3235.73 C 4312.4502 3235.13 4312.0902 3234.8 4311.7102 3234.58 L 4311.7102 3234.55 C 4311.9602 3234.34 4312.3002 3233.94 4312.3002 3233.48 C 4312.3002 3232.81 4311.8502 3232.32 4311.1102 3232.32 C 4310.4302 3232.32 4309.9202 3232.77 4309.9202 3233.43 C 4309.9202 3233.89 4310.2002 3234.22 4310.5202 3234.44 L 4310.5202 3234.46 C 4310.1202 3234.69 4309.7002 3235.09 4309.7002 3235.69 C 4309.7002 3236.37 4310.2902 3236.86 4311.0902 3236.86 Z  M 4311.3902 3234.42 C 4310.8702 3234.21 4310.3702 3233.98 4310.3702 3233.43 C 4310.3702 3232.99 4310.6802 3232.69 4311.0902 3232.69 C 4311.5902 3232.69 4311.8702 3233.06 4311.8702 3233.5 C 4311.8702 3233.84 4311.7102 3234.15 4311.3902 3234.42 Z  M 4311.1002 3236.49 C 4310.5502 3236.49 4310.1502 3236.13 4310.1502 3235.65 C 4310.1502 3235.21 4310.4102 3234.85 4310.7802 3234.62 C 4311.4202 3234.88 4311.9802 3235.11 4311.9802 3235.72 C 4311.9802 3236.16 4311.6302 3236.49 4311.1002 3236.49 Z " stroke="none" stroke-width="0.8"/></g><g c_partid="part_pcbtext" c_origin="4236.45,3164.7" c_rotation="90" c_mirror="" locked="0" layerid="3" c_shapetype="group"><path c_fontSize="4.5" c_fontFamily="" c_text="ACDC-5V-4W" d="M 4234.0002 3163.0602L4238.2902 3164.7002 M 4234.0002 3163.0602L4238.2902 3161.4302 M 4236.8602 3164.0902L4236.8602 3162.0402 M 4235.0202 3157.0102L4234.6102 3157.2102 L4234.2002 3157.6202 L4234.0002 3158.0302 L4234.0002 3158.8502 L4234.2002 3159.2602 L4234.6102 3159.6702 L4235.0202 3159.8702 L4235.6302 3160.0802 L4236.6502 3160.0802 L4237.2702 3159.8702 L4237.6802 3159.6702 L4238.0902 3159.2602 L4238.2902 3158.8502 L4238.2902 3158.0302 L4238.0902 3157.6202 L4237.6802 3157.2102 L4237.2702 3157.0102 M 4234.0002 3155.6602L4238.2902 3155.6602 M 4234.0002 3155.6602L4234.0002 3154.2302 L4234.2002 3153.6102 L4234.6102 3153.2002 L4235.0202 3153.0002 L4235.6302 3152.8002 L4236.6502 3152.8002 L4237.2702 3153.0002 L4237.6802 3153.2002 L4238.0902 3153.6102 L4238.2902 3154.2302 L4238.2902 3155.6602 M 4235.0202 3148.3802L4234.6102 3148.5802 L4234.2002 3148.9902 L4234.0002 3149.4002 L4234.0002 3150.2202 L4234.2002 3150.6302 L4234.6102 3151.0402 L4235.0202 3151.2402 L4235.6302 3151.4502 L4236.6502 3151.4502 L4237.2702 3151.2402 L4237.6802 3151.0402 L4238.0902 3150.6302 L4238.2902 3150.2202 L4238.2902 3149.4002 L4238.0902 3148.9902 L4237.6802 3148.5802 L4237.2702 3148.3802 M 4236.4502 3147.0302L4236.4502 3143.3502 M 4234.0002 3139.5402L4234.0002 3141.5902 L4235.8402 3141.7902 L4235.6302 3141.5902 L4235.4302 3140.9702 L4235.4302 3140.3602 L4235.6302 3139.7502 L4236.0402 3139.3402 L4236.6502 3139.1302 L4237.0602 3139.1302 L4237.6802 3139.3402 L4238.0902 3139.7502 L4238.2902 3140.3602 L4238.2902 3140.9702 L4238.0902 3141.5902 L4237.8802 3141.7902 L4237.4702 3142.0002 M 4234.0002 3137.7802L4238.2902 3136.1502 M 4234.0002 3134.5102L4238.2902 3136.1502 M 4236.4502 3133.1602L4236.4502 3129.4802 M 4234.0002 3126.0802L4236.8602 3128.1302 L4236.8602 3125.0602 M 4234.0002 3126.0802L4238.2902 3126.0802 M 4234.0002 3123.7102L4238.2902 3122.6902 M 4234.0002 3121.6602L4238.2902 3122.6902 M 4234.0002 3121.6602L4238.2902 3120.6402 M 4234.0002 3119.6202L4238.2902 3120.6402 " fill="none" stroke-width="0.7" c_note="note_pre"/></g><g c_partid="part_pcbtext" c_origin="4200,3153" c_rotation="90" c_mirror="" locked="0" layerid="3" c_shapetype="group" display="none"><path c_fontSize="4.5" c_fontFamily="" c_text="RAC01-05SC" d="M 4197.55 3153 L 4201.84 3153 M 4197.55 3153 L 4197.55 3151.16 L 4197.75 3150.55 L 4197.95 3150.34 L 4198.36 3150.14 L 4198.77 3150.14 L 4199.18 3150.34 L 4199.39 3150.55 L 4199.59 3151.16 L 4199.59 3153 M 4199.59 3151.57 L 4201.84 3150.14 M 4197.55 3147.15 L 4201.84 3148.79 M 4197.55 3147.15 L 4201.84 3145.51 M 4200.41 3148.17 L 4200.41 3146.13 M 4198.57 3141.1 L 4198.16 3141.3 L 4197.75 3141.71 L 4197.55 3142.12 L 4197.55 3142.94 L 4197.75 3143.35 L 4198.16 3143.75 L 4198.57 3143.96 L 4199.18 3144.16 L 4200.2 3144.16 L 4200.82 3143.96 L 4201.23 3143.75 L 4201.64 3143.35 L 4201.84 3142.94 L 4201.84 3142.12 L 4201.64 3141.71 L 4201.23 3141.3 L 4200.82 3141.1 M 4197.55 3138.52 L 4197.75 3139.13 L 4198.36 3139.54 L 4199.39 3139.75 L 4200 3139.75 L 4201.02 3139.54 L 4201.64 3139.13 L 4201.84 3138.52 L 4201.84 3138.11 L 4201.64 3137.5 L 4201.02 3137.09 L 4200 3136.88 L 4199.39 3136.88 L 4198.36 3137.09 L 4197.75 3137.5 L 4197.55 3138.11 L 4197.55 3138.52 M 4198.36 3135.53 L 4198.16 3135.12 L 4197.55 3134.51 L 4201.84 3134.51 M 4200 3133.16 L 4200 3129.48 M 4197.55 3126.9 L 4197.75 3127.51 L 4198.36 3127.92 L 4199.39 3128.13 L 4200 3128.13 L 4201.02 3127.92 L 4201.64 3127.51 L 4201.84 3126.9 L 4201.84 3126.49 L 4201.64 3125.88 L 4201.02 3125.47 L 4200 3125.26 L 4199.39 3125.26 L 4198.36 3125.47 L 4197.75 3125.88 L 4197.55 3126.49 L 4197.55 3126.9 M 4197.55 3121.46 L 4197.55 3123.5 L 4199.39 3123.71 L 4199.18 3123.5 L 4198.98 3122.89 L 4198.98 3122.28 L 4199.18 3121.66 L 4199.59 3121.25 L 4200.2 3121.05 L 4200.61 3121.05 L 4201.23 3121.25 L 4201.64 3121.66 L 4201.84 3122.28 L 4201.84 3122.89 L 4201.64 3123.5 L 4201.43 3123.71 L 4201.02 3123.91 M 4198.16 3116.84 L 4197.75 3117.25 L 4197.55 3117.86 L 4197.55 3118.68 L 4197.75 3119.29 L 4198.16 3119.7 L 4198.57 3119.7 L 4198.98 3119.5 L 4199.18 3119.29 L 4199.39 3118.88 L 4199.8 3117.65 L 4200 3117.25 L 4200.2 3117.04 L 4200.61 3116.84 L 4201.23 3116.84 L 4201.64 3117.25 L 4201.84 3117.86 L 4201.84 3118.68 L 4201.64 3119.29 L 4201.23 3119.7 M 4198.57 3112.42 L 4198.16 3112.62 L 4197.75 3113.03 L 4197.55 3113.44 L 4197.55 3114.26 L 4197.75 3114.67 L 4198.16 3115.08 L 4198.57 3115.28 L 4199.18 3115.49 L 4200.2 3115.49 L 4200.82 3115.28 L 4201.23 3115.08 L 4201.64 3114.67 L 4201.84 3114.26 L 4201.84 3113.44 L 4201.64 3113.03 L 4201.23 3112.62 L 4200.82 3112.42" fill="none" stroke-width="0.5" c_note="note_name"/></g><g c_partid="part_pcbtext" c_origin="4255,3264.45" c_rotation="0" c_mirror="" locked="0" layerid="3" c_shapetype="group"><path c_fontSize="4.5" c_fontFamily="" c_text="MOV" d="M 4255 3262 L 4255 3266.29 M 4255 3262 L 4256.64 3266.29 M 4258.27 3262 L 4256.64 3266.29 M 4258.27 3262 L 4258.27 3266.29 M 4260.85 3262 L 4260.44 3262.2 L 4260.03 3262.61 L 4259.83 3263.02 L 4259.62 3263.63 L 4259.62 3264.65 L 4259.83 3265.27 L 4260.03 3265.68 L 4260.44 3266.09 L 4260.85 3266.29 L 4261.67 3266.29 L 4262.08 3266.09 L 4262.49 3265.68 L 4262.69 3265.27 L 4262.9 3264.65 L 4262.9 3263.63 L 4262.69 3263.02 L 4262.49 3262.61 L 4262.08 3262.2 L 4261.67 3262 L 4260.85 3262 M 4264.25 3262 L 4265.88 3266.29 M 4267.52 3262 L 4265.88 3266.29" fill="none" stroke-width="0.7" c_note="note_pre"/></g><g c_partid="part_pcbtext" c_origin="4261,3229" c_rotation="0" c_mirror="" locked="0" layerid="3" c_shapetype="group" display="none"><path c_fontSize="4.5" c_fontFamily="" c_text="MOV 180V" d="M 4261 3226.55 L 4261 3230.84 M 4261 3226.55 L 4262.64 3230.84 M 4264.27 3226.55 L 4262.64 3230.84 M 4264.27 3226.55 L 4264.27 3230.84 M 4266.85 3226.55 L 4266.44 3226.75 L 4266.03 3227.16 L 4265.83 3227.57 L 4265.62 3228.18 L 4265.62 3229.2 L 4265.83 3229.82 L 4266.03 3230.23 L 4266.44 3230.64 L 4266.85 3230.84 L 4267.67 3230.84 L 4268.08 3230.64 L 4268.49 3230.23 L 4268.69 3229.82 L 4268.9 3229.2 L 4268.9 3228.18 L 4268.69 3227.57 L 4268.49 3227.16 L 4268.08 3226.75 L 4267.67 3226.55 L 4266.85 3226.55 M 4270.25 3226.55 L 4271.88 3230.84 M 4273.52 3226.55 L 4271.88 3230.84 M 4278.02 3227.36 L 4278.43 3227.16 L 4279.04 3226.55 L 4279.04 3230.84 M 4281.41 3226.55 L 4280.8 3226.75 L 4280.6 3227.16 L 4280.6 3227.57 L 4280.8 3227.98 L 4281.21 3228.18 L 4282.03 3228.39 L 4282.64 3228.59 L 4283.05 3229 L 4283.25 3229.41 L 4283.25 3230.02 L 4283.05 3230.43 L 4282.85 3230.64 L 4282.23 3230.84 L 4281.41 3230.84 L 4280.8 3230.64 L 4280.6 3230.43 L 4280.39 3230.02 L 4280.39 3229.41 L 4280.6 3229 L 4281 3228.59 L 4281.62 3228.39 L 4282.44 3228.18 L 4282.85 3227.98 L 4283.05 3227.57 L 4283.05 3227.16 L 4282.85 3226.75 L 4282.23 3226.55 L 4281.41 3226.55 M 4285.83 3226.55 L 4285.22 3226.75 L 4284.81 3227.36 L 4284.6 3228.39 L 4284.6 3229 L 4284.81 3230.02 L 4285.22 3230.64 L 4285.83 3230.84 L 4286.24 3230.84 L 4286.85 3230.64 L 4287.26 3230.02 L 4287.47 3229 L 4287.47 3228.39 L 4287.26 3227.36 L 4286.85 3226.75 L 4286.24 3226.55 L 4285.83 3226.55 M 4288.82 3226.55 L 4290.45 3230.84 M 4292.09 3226.55 L 4290.45 3230.84" fill="none" stroke-width="0.5" c_note="note_name"/></g><g c_partid="part_pcbtext" c_origin="4192,3110" c_rotation="90" c_mirror="" locked="0" layerid="3" c_shapetype="group"><path c_fontSize="4.5" c_fontFamily="" c_text="Q1" d="M 4189.55 3108.77 L 4189.75 3109.18 L 4190.16 3109.59 L 4190.57 3109.8 L 4191.18 3110 L 4192.2 3110 L 4192.82 3109.8 L 4193.23 3109.59 L 4193.64 3109.18 L 4193.84 3108.77 L 4193.84 3107.95 L 4193.64 3107.55 L 4193.23 3107.14 L 4192.82 3106.93 L 4192.2 3106.73 L 4191.18 3106.73 L 4190.57 3106.93 L 4190.16 3107.14 L 4189.75 3107.55 L 4189.55 3107.95 L 4189.55 3108.77 M 4193.02 3108.16 L 4194.25 3106.93 M 4190.36 3105.38 L 4190.16 3104.97 L 4189.55 3104.35 L 4193.84 3104.35" fill="none" stroke-width="0.7" c_note="note_pre"/></g><g c_partid="part_pcbtext" c_origin="4200,3110" c_rotation="270" c_mirror="" locked="0" layerid="3" c_shapetype="group" display="none"><path c_fontSize="4.5" c_fontFamily="" c_text="NCE8580" d="M 4202.45 3110 L 4198.16 3110 M 4202.45 3110 L 4198.16 3112.86 M 4202.45 3112.86 L 4198.16 3112.86 M 4201.43 3117.28 L 4201.84 3117.08 L 4202.25 3116.67 L 4202.45 3116.26 L 4202.45 3115.44 L 4202.25 3115.03 L 4201.84 3114.62 L 4201.43 3114.42 L 4200.82 3114.21 L 4199.8 3114.21 L 4199.18 3114.42 L 4198.77 3114.62 L 4198.36 3115.03 L 4198.16 3115.44 L 4198.16 3116.26 L 4198.36 3116.67 L 4198.77 3117.08 L 4199.18 3117.28 M 4202.45 3118.63 L 4198.16 3118.63 M 4202.45 3118.63 L 4202.45 3121.29 M 4200.41 3118.63 L 4200.41 3120.27 M 4198.16 3118.63 L 4198.16 3121.29 M 4202.45 3123.66 L 4202.25 3123.05 L 4201.84 3122.85 L 4201.43 3122.85 L 4201.02 3123.05 L 4200.82 3123.46 L 4200.61 3124.28 L 4200.41 3124.89 L 4200 3125.3 L 4199.59 3125.5 L 4198.98 3125.5 L 4198.57 3125.3 L 4198.36 3125.1 L 4198.16 3124.48 L 4198.16 3123.66 L 4198.36 3123.05 L 4198.57 3122.85 L 4198.98 3122.64 L 4199.59 3122.64 L 4200 3122.85 L 4200.41 3123.25 L 4200.61 3123.87 L 4200.82 3124.69 L 4201.02 3125.1 L 4201.43 3125.3 L 4201.84 3125.3 L 4202.25 3125.1 L 4202.45 3124.48 L 4202.45 3123.66 M 4202.45 3129.31 L 4202.45 3127.26 L 4200.61 3127.06 L 4200.82 3127.26 L 4201.02 3127.88 L 4201.02 3128.49 L 4200.82 3129.1 L 4200.41 3129.51 L 4199.8 3129.72 L 4199.39 3129.72 L 4198.77 3129.51 L 4198.36 3129.1 L 4198.16 3128.49 L 4198.16 3127.88 L 4198.36 3127.26 L 4198.57 3127.06 L 4198.98 3126.85 M 4202.45 3132.09 L 4202.25 3131.48 L 4201.84 3131.27 L 4201.43 3131.27 L 4201.02 3131.48 L 4200.82 3131.89 L 4200.61 3132.7 L 4200.41 3133.32 L 4200 3133.73 L 4199.59 3133.93 L 4198.98 3133.93 L 4198.57 3133.73 L 4198.36 3133.52 L 4198.16 3132.91 L 4198.16 3132.09 L 4198.36 3131.48 L 4198.57 3131.27 L 4198.98 3131.07 L 4199.59 3131.07 L 4200 3131.27 L 4200.41 3131.68 L 4200.61 3132.3 L 4200.82 3133.11 L 4201.02 3133.52 L 4201.43 3133.73 L 4201.84 3133.73 L 4202.25 3133.52 L 4202.45 3132.91 L 4202.45 3132.09 M 4202.45 3136.51 L 4202.25 3135.9 L 4201.64 3135.49 L 4200.61 3135.28 L 4200 3135.28 L 4198.98 3135.49 L 4198.36 3135.9 L 4198.16 3136.51 L 4198.16 3136.92 L 4198.36 3137.53 L 4198.98 3137.94 L 4200 3138.15 L 4200.61 3138.15 L 4201.64 3137.94 L 4202.25 3137.53 L 4202.45 3136.92 L 4202.45 3136.51" fill="none" stroke-width="0.5" c_note="note_name"/></g><g c_partid="part_pcbtext" c_origin="4092.45,3111.24" c_rotation="90" c_mirror="" locked="0" layerid="3" c_shapetype="group"><path c_fontSize="4.5" c_fontFamily="" c_text="D1" d="M 4090.0002 3111.24 L 4094.2902 3111.24 M 4090.0002 3111.24 L 4090.0002 3109.81 L 4090.2002 3109.19 L 4090.6102 3108.79 L 4091.0202 3108.58 L 4091.6302 3108.38 L 4092.6502 3108.38 L 4093.2702 3108.58 L 4093.6802 3108.79 L 4094.0902 3109.19 L 4094.2902 3109.81 L 4094.2902 3111.24 M 4090.8102 3107.03 L 4090.6102 3106.62 L 4090.0002 3106 L 4094.2902 3106" fill="none" stroke-width="0.7" c_note="note_pre"/></g><g c_partid="part_pcbtext" c_origin="4141,3107" c_rotation="270" c_mirror="" locked="0" layerid="3" c_shapetype="group" display="none"><path c_fontSize="4.5" c_fontFamily="" c_text="1.5KE440CA" d="M 4142.64 3107 L 4142.84 3107.41 L 4143.45 3108.02 L 4139.16 3108.02 M 4140.18 3109.58 L 4139.98 3109.37 L 4139.77 3109.58 L 4139.98 3109.78 L 4140.18 3109.58 M 4143.45 3113.59 L 4143.45 3111.54 L 4141.61 3111.34 L 4141.82 3111.54 L 4142.02 3112.15 L 4142.02 3112.77 L 4141.82 3113.38 L 4141.41 3113.79 L 4140.8 3114 L 4140.39 3114 L 4139.77 3113.79 L 4139.36 3113.38 L 4139.16 3112.77 L 4139.16 3112.15 L 4139.36 3111.54 L 4139.57 3111.34 L 4139.98 3111.13 M 4143.45 3115.35 L 4139.16 3115.35 M 4143.45 3118.21 L 4140.59 3115.35 M 4141.61 3116.37 L 4139.16 3118.21 M 4143.45 3119.56 L 4139.16 3119.56 M 4143.45 3119.56 L 4143.45 3122.22 M 4141.41 3119.56 L 4141.41 3121.2 M 4139.16 3119.56 L 4139.16 3122.22 M 4143.45 3125.61 L 4140.59 3123.57 L 4140.59 3126.64 M 4143.45 3125.61 L 4139.16 3125.61 M 4143.45 3130.03 L 4140.59 3127.99 L 4140.59 3131.05 M 4143.45 3130.03 L 4139.16 3130.03 M 4143.45 3133.63 L 4143.25 3133.02 L 4142.64 3132.61 L 4141.61 3132.4 L 4141 3132.4 L 4139.98 3132.61 L 4139.36 3133.02 L 4139.16 3133.63 L 4139.16 3134.04 L 4139.36 3134.65 L 4139.98 3135.06 L 4141 3135.27 L 4141.61 3135.27 L 4142.64 3135.06 L 4143.25 3134.65 L 4143.45 3134.04 L 4143.45 3133.63 M 4142.43 3139.69 L 4142.84 3139.48 L 4143.25 3139.07 L 4143.45 3138.66 L 4143.45 3137.85 L 4143.25 3137.44 L 4142.84 3137.03 L 4142.43 3136.82 L 4141.82 3136.62 L 4140.8 3136.62 L 4140.18 3136.82 L 4139.77 3137.03 L 4139.36 3137.44 L 4139.16 3137.85 L 4139.16 3138.66 L 4139.36 3139.07 L 4139.77 3139.48 L 4140.18 3139.69 M 4143.45 3142.67 L 4139.16 3141.04 M 4143.45 3142.67 L 4139.16 3144.31 M 4140.59 3141.65 L 4140.59 3143.7" fill="none" stroke-width="0.5" c_note="note_name"/></g><g c_partid="part_pcbtext" c_origin="4091,3086.45" c_rotation="0" c_mirror="" locked="0" layerid="3" c_shapetype="group"><path c_fontSize="4.5" c_fontFamily="" c_text="D3" d="M 4091 3084 L 4091 3088.29 M 4091 3084 L 4092.43 3084 L 4093.05 3084.2 L 4093.45 3084.61 L 4093.66 3085.02 L 4093.86 3085.63 L 4093.86 3086.65 L 4093.66 3087.27 L 4093.45 3087.68 L 4093.05 3088.09 L 4092.43 3088.29 L 4091 3088.29 M 4095.62 3084 L 4097.87 3084 L 4096.65 3085.63 L 4097.26 3085.63 L 4097.67 3085.84 L 4097.87 3086.04 L 4098.08 3086.65 L 4098.08 3087.06 L 4097.87 3087.68 L 4097.46 3088.09 L 4096.85 3088.29 L 4096.24 3088.29 L 4095.62 3088.09 L 4095.42 3087.88 L 4095.21 3087.47" fill="none" stroke-width="0.7" c_note="note_pre"/></g><g c_partid="part_pcbtext" c_origin="4094,3068" c_rotation="0" c_mirror="" locked="0" layerid="3" c_shapetype="group" display="none"><path c_fontSize="4.5" c_fontFamily="" c_text="1N4004" d="M 4094 3066.36 L 4094.41 3066.16 L 4095.02 3065.55 L 4095.02 3069.84 M 4096.37 3065.55 L 4096.37 3069.84 M 4096.37 3065.55 L 4099.24 3069.84 M 4099.24 3065.55 L 4099.24 3069.84 M 4102.63 3065.55 L 4100.59 3068.41 L 4103.65 3068.41 M 4102.63 3065.55 L 4102.63 3069.84 M 4106.23 3065.55 L 4105.62 3065.75 L 4105.21 3066.36 L 4105 3067.39 L 4105 3068 L 4105.21 3069.02 L 4105.62 3069.64 L 4106.23 3069.84 L 4106.64 3069.84 L 4107.25 3069.64 L 4107.66 3069.02 L 4107.87 3068 L 4107.87 3067.39 L 4107.66 3066.36 L 4107.25 3065.75 L 4106.64 3065.55 L 4106.23 3065.55 M 4110.45 3065.55 L 4109.83 3065.75 L 4109.42 3066.36 L 4109.22 3067.39 L 4109.22 3068 L 4109.42 3069.02 L 4109.83 3069.64 L 4110.45 3069.84 L 4110.85 3069.84 L 4111.47 3069.64 L 4111.88 3069.02 L 4112.08 3068 L 4112.08 3067.39 L 4111.88 3066.36 L 4111.47 3065.75 L 4110.85 3065.55 L 4110.45 3065.55 M 4115.48 3065.55 L 4113.43 3068.41 L 4116.5 3068.41 M 4115.48 3065.55 L 4115.48 3069.84" fill="none" stroke-width="0.5" c_note="note_name"/></g><g c_partid="part_pcbtext" c_origin="4227,3072.45" c_rotation="0" c_mirror="" locked="0" layerid="3" c_shapetype="group"><path c_fontSize="4.5" c_fontFamily="" c_text="R2" d="M 4227 3070 L 4227 3074.29 M 4227 3070 L 4228.84 3070 L 4229.45 3070.2 L 4229.66 3070.4 L 4229.86 3070.81 L 4229.86 3071.22 L 4229.66 3071.63 L 4229.45 3071.84 L 4228.84 3072.04 L 4227 3072.04 M 4228.43 3072.04 L 4229.86 3074.29 M 4231.42 3071.02 L 4231.42 3070.81 L 4231.62 3070.4 L 4231.83 3070.2 L 4232.24 3070 L 4233.05 3070 L 4233.46 3070.2 L 4233.67 3070.4 L 4233.87 3070.81 L 4233.87 3071.22 L 4233.67 3071.63 L 4233.26 3072.25 L 4231.21 3074.29 L 4234.08 3074.29" fill="none" stroke-width="0.7" c_note="note_pre"/></g><g c_partid="part_pcbtext" c_origin="4228,3090" c_rotation="180" c_mirror="" locked="0" layerid="3" c_shapetype="group" display="none"><path c_fontSize="4.5" c_fontFamily="" c_text="10K&#937;" d="M 4228 3091.64 L 4227.59 3091.84 L 4226.98 3092.45 L 4226.98 3088.16 M 4224.4 3092.45 L 4225.01 3092.25 L 4225.42 3091.64 L 4225.63 3090.61 L 4225.63 3090 L 4225.42 3088.98 L 4225.01 3088.36 L 4224.4 3088.16 L 4223.99 3088.16 L 4223.38 3088.36 L 4222.97 3088.98 L 4222.76 3090 L 4222.76 3090.61 L 4222.97 3091.64 L 4223.38 3092.25 L 4223.99 3092.45 L 4224.4 3092.45 M 4221.41 3092.45 L 4221.41 3088.16 M 4218.55 3092.45 L 4221.41 3089.59 M 4220.39 3090.61 L 4218.55 3088.16" fill="none" stroke-width="0.5" c_note="note_name"/></g><g c_partid="part_pcbtext" c_origin="4226,3059.45" c_rotation="0" c_mirror="" locked="0" layerid="3" c_shapetype="group"><path c_fontSize="4.5" c_fontFamily="" c_text="R3" d="M 4226 3057 L 4226 3061.29 M 4226 3057 L 4227.84 3057 L 4228.45 3057.2 L 4228.66 3057.4 L 4228.86 3057.81 L 4228.86 3058.22 L 4228.66 3058.63 L 4228.45 3058.84 L 4227.84 3059.04 L 4226 3059.04 M 4227.43 3059.04 L 4228.86 3061.29 M 4230.62 3057 L 4232.87 3057 L 4231.65 3058.63 L 4232.26 3058.63 L 4232.67 3058.84 L 4232.87 3059.04 L 4233.08 3059.65 L 4233.08 3060.06 L 4232.87 3060.68 L 4232.46 3061.09 L 4231.85 3061.29 L 4231.24 3061.29 L 4230.62 3061.09 L 4230.42 3060.88 L 4230.21 3060.47" fill="none" stroke-width="0.7" c_note="note_pre"/></g><g c_partid="part_pcbtext" c_origin="4228,3077" c_rotation="180" c_mirror="" locked="0" layerid="3" c_shapetype="group" display="none"><path c_fontSize="4.5" c_fontFamily="" c_text="10K&#937;" d="M 4228 3078.64 L 4227.59 3078.84 L 4226.98 3079.45 L 4226.98 3075.16 M 4224.4 3079.45 L 4225.01 3079.25 L 4225.42 3078.64 L 4225.63 3077.61 L 4225.63 3077 L 4225.42 3075.98 L 4225.01 3075.36 L 4224.4 3075.16 L 4223.99 3075.16 L 4223.38 3075.36 L 4222.97 3075.98 L 4222.76 3077 L 4222.76 3077.61 L 4222.97 3078.64 L 4223.38 3079.25 L 4223.99 3079.45 L 4224.4 3079.45 M 4221.41 3079.45 L 4221.41 3075.16 M 4218.55 3079.45 L 4221.41 3076.59 M 4220.39 3077.61 L 4218.55 3075.16" fill="none" stroke-width="0.5" c_note="note_name"/></g><g c_partid="part_pcbtext" c_origin="4114,3072" c_rotation="90" c_mirror="" locked="0" layerid="3" c_shapetype="group"><path c_fontSize="4.5" c_fontFamily="" c_text="U1" d="M 4111.55 3072 L 4114.61 3072 L 4115.23 3071.8 L 4115.64 3071.39 L 4115.84 3070.77 L 4115.84 3070.36 L 4115.64 3069.75 L 4115.23 3069.34 L 4114.61 3069.14 L 4111.55 3069.14 M 4112.36 3067.79 L 4112.16 3067.38 L 4111.55 3066.76 L 4115.84 3066.76" fill="none" stroke-width="0.7" c_note="note_pre"/></g><g c_partid="part_pcbtext" c_origin="4106,3072" c_rotation="90" c_mirror="" locked="0" layerid="3" c_shapetype="group" display="none"><path c_fontSize="4.5" c_fontFamily="" c_text="ATTINY45-20PU" d="M 4103.55 3070.36 L 4107.84 3072 M 4103.55 3070.36 L 4107.84 3068.73 M 4106.41 3071.39 L 4106.41 3069.34 M 4103.55 3065.95 L 4107.84 3065.95 M 4103.55 3067.38 L 4103.55 3064.51 M 4103.55 3061.73 L 4107.84 3061.73 M 4103.55 3063.16 L 4103.55 3060.3 M 4103.55 3058.95 L 4107.84 3058.95 M 4103.55 3057.6 L 4107.84 3057.6 M 4103.55 3057.6 L 4107.84 3054.74 M 4103.55 3054.74 L 4107.84 3054.74 M 4103.55 3053.39 L 4105.59 3051.75 L 4107.84 3051.75 M 4103.55 3050.11 L 4105.59 3051.75 M 4103.55 3046.72 L 4106.41 3048.76 L 4106.41 3045.7 M 4103.55 3046.72 L 4107.84 3046.72 M 4103.55 3041.89 L 4103.55 3043.94 L 4105.39 3044.14 L 4105.18 3043.94 L 4104.98 3043.32 L 4104.98 3042.71 L 4105.18 3042.1 L 4105.59 3041.69 L 4106.2 3041.48 L 4106.61 3041.48 L 4107.23 3041.69 L 4107.64 3042.1 L 4107.84 3042.71 L 4107.84 3043.32 L 4107.64 3043.94 L 4107.43 3044.14 L 4107.02 3044.35 M 4106 3040.13 L 4106 3036.45 M 4104.57 3034.9 L 4104.36 3034.9 L 4103.95 3034.69 L 4103.75 3034.49 L 4103.55 3034.08 L 4103.55 3033.26 L 4103.75 3032.85 L 4103.95 3032.65 L 4104.36 3032.44 L 4104.77 3032.44 L 4105.18 3032.65 L 4105.8 3033.05 L 4107.84 3035.1 L 4107.84 3032.24 M 4103.55 3029.66 L 4103.75 3030.27 L 4104.36 3030.68 L 4105.39 3030.89 L 4106 3030.89 L 4107.02 3030.68 L 4107.64 3030.27 L 4107.84 3029.66 L 4107.84 3029.25 L 4107.64 3028.64 L 4107.02 3028.23 L 4106 3028.02 L 4105.39 3028.02 L 4104.36 3028.23 L 4103.75 3028.64 L 4103.55 3029.25 L 4103.55 3029.66 M 4103.55 3026.67 L 4107.84 3026.67 M 4103.55 3026.67 L 4103.55 3024.83 L 4103.75 3024.22 L 4103.95 3024.01 L 4104.36 3023.81 L 4104.98 3023.81 L 4105.39 3024.01 L 4105.59 3024.22 L 4105.8 3024.83 L 4105.8 3026.67 M 4103.55 3022.46 L 4106.61 3022.46 L 4107.23 3022.25 L 4107.64 3021.85 L 4107.84 3021.23 L 4107.84 3020.82 L 4107.64 3020.21 L 4107.23 3019.8 L 4106.61 3019.6 L 4103.55 3019.6" fill="none" stroke-width="0.5" c_note="note_name"/></g><g c_partid="part_pcbtext" c_origin="4198,3192.45" c_rotation="0" c_mirror="" locked="0" layerid="3" c_shapetype="group"><path c_fontSize="4.5" c_fontFamily="" c_text="D2" d="M 4198 3190 L 4198 3194.29 M 4198 3190 L 4199.43 3190 L 4200.05 3190.2 L 4200.45 3190.61 L 4200.66 3191.02 L 4200.86 3191.63 L 4200.86 3192.65 L 4200.66 3193.27 L 4200.45 3193.68 L 4200.05 3194.09 L 4199.43 3194.29 L 4198 3194.29 M 4202.42 3191.02 L 4202.42 3190.81 L 4202.62 3190.4 L 4202.83 3190.2 L 4203.24 3190 L 4204.05 3190 L 4204.46 3190.2 L 4204.67 3190.4 L 4204.87 3190.81 L 4204.87 3191.22 L 4204.67 3191.63 L 4204.26 3192.25 L 4202.21 3194.29 L 4205.08 3194.29" fill="none" stroke-width="0.7" c_note="note_pre"/></g><g c_partid="part_pcbtext" c_origin="4201,3141" c_rotation="0" c_mirror="" locked="0" layerid="3" c_shapetype="group" display="none"><path c_fontSize="4.5" c_fontFamily="" c_text="1.5KE440CA" d="M 4201 3139.36 L 4201.41 3139.16 L 4202.02 3138.55 L 4202.02 3142.84 M 4203.58 3141.82 L 4203.37 3142.02 L 4203.58 3142.23 L 4203.78 3142.02 L 4203.58 3141.82 M 4207.59 3138.55 L 4205.54 3138.55 L 4205.34 3140.39 L 4205.54 3140.18 L 4206.15 3139.98 L 4206.77 3139.98 L 4207.38 3140.18 L 4207.79 3140.59 L 4208 3141.2 L 4208 3141.61 L 4207.79 3142.23 L 4207.38 3142.64 L 4206.77 3142.84 L 4206.15 3142.84 L 4205.54 3142.64 L 4205.34 3142.43 L 4205.13 3142.02 M 4209.35 3138.55 L 4209.35 3142.84 M 4212.21 3138.55 L 4209.35 3141.41 M 4210.37 3140.39 L 4212.21 3142.84 M 4213.56 3138.55 L 4213.56 3142.84 M 4213.56 3138.55 L 4216.22 3138.55 M 4213.56 3140.59 L 4215.2 3140.59 M 4213.56 3142.84 L 4216.22 3142.84 M 4219.61 3138.55 L 4217.57 3141.41 L 4220.64 3141.41 M 4219.61 3138.55 L 4219.61 3142.84 M 4224.03 3138.55 L 4221.99 3141.41 L 4225.05 3141.41 M 4224.03 3138.55 L 4224.03 3142.84 M 4227.63 3138.55 L 4227.02 3138.75 L 4226.61 3139.36 L 4226.4 3140.39 L 4226.4 3141 L 4226.61 3142.02 L 4227.02 3142.64 L 4227.63 3142.84 L 4228.04 3142.84 L 4228.65 3142.64 L 4229.06 3142.02 L 4229.27 3141 L 4229.27 3140.39 L 4229.06 3139.36 L 4228.65 3138.75 L 4228.04 3138.55 L 4227.63 3138.55 M 4233.69 3139.57 L 4233.48 3139.16 L 4233.07 3138.75 L 4232.66 3138.55 L 4231.85 3138.55 L 4231.44 3138.75 L 4231.03 3139.16 L 4230.82 3139.57 L 4230.62 3140.18 L 4230.62 3141.2 L 4230.82 3141.82 L 4231.03 3142.23 L 4231.44 3142.64 L 4231.85 3142.84 L 4232.66 3142.84 L 4233.07 3142.64 L 4233.48 3142.23 L 4233.69 3141.82 M 4236.67 3138.55 L 4235.04 3142.84 M 4236.67 3138.55 L 4238.31 3142.84 M 4235.65 3141.41 L 4237.7 3141.41" fill="none" stroke-width="0.5" c_note="note_name"/></g><g c_partid="part_pcbtext" c_origin="4192,3252.4" c_rotation="0" c_mirror="" locked="0" layerid="3" c_shapetype="group"><path c_fontSize="4.5" c_fontFamily="" c_text="120V" d="M 4192 3250.76L4192.41 3250.56 L4193.02 3249.95 L4193.02 3254.24 M 4194.58 3250.97L4194.58 3250.76 L4194.78 3250.35 L4194.99 3250.15 L4195.4 3249.95 L4196.21 3249.95 L4196.62 3250.15 L4196.83 3250.35 L4197.03 3250.76 L4197.03 3251.17 L4196.83 3251.58 L4196.42 3252.2 L4194.37 3254.24 L4197.24 3254.24 M 4199.81 3249.95L4199.2 3250.15 L4198.79 3250.76 L4198.59 3251.79 L4198.59 3252.4 L4198.79 3253.42 L4199.2 3254.04 L4199.81 3254.24 L4200.22 3254.24 L4200.84 3254.04 L4201.25 3253.42 L4201.45 3252.4 L4201.45 3251.79 L4201.25 3250.76 L4200.84 3250.15 L4200.22 3249.95 L4199.81 3249.95 M 4202.8 3249.95L4204.44 3254.24 M 4206.07 3249.95L4204.44 3254.24 " fill="none" stroke-width="0.7" c_note="note_pre"/></g><g c_partid="part_pcbtext" c_origin="4192,3244.4" c_rotation="0" c_mirror="" locked="0" layerid="3" c_shapetype="group" display="none"><path c_fontSize="4.5" c_fontFamily="" c_text="120V L" d="M 4192 3242.76 L 4192.41 3242.56 L 4193.02 3241.95 L 4193.02 3246.24 M 4194.58 3242.97 L 4194.58 3242.76 L 4194.78 3242.35 L 4194.99 3242.15 L 4195.4 3241.95 L 4196.21 3241.95 L 4196.62 3242.15 L 4196.83 3242.35 L 4197.03 3242.76 L 4197.03 3243.17 L 4196.83 3243.58 L 4196.42 3244.2 L 4194.37 3246.24 L 4197.24 3246.24 M 4199.81 3241.95 L 4199.2 3242.15 L 4198.79 3242.76 L 4198.59 3243.79 L 4198.59 3244.4 L 4198.79 3245.42 L 4199.2 3246.04 L 4199.81 3246.24 L 4200.22 3246.24 L 4200.84 3246.04 L 4201.25 3245.42 L 4201.45 3244.4 L 4201.45 3243.79 L 4201.25 3242.76 L 4200.84 3242.15 L 4200.22 3241.95 L 4199.81 3241.95 M 4202.8 3241.95 L 4204.44 3246.24 M 4206.07 3241.95 L 4204.44 3246.24 M 4210.57 3241.95 L 4210.57 3246.24 M 4210.57 3246.24 L 4213.03 3246.24" fill="none" stroke-width="0.5" c_note="note_name"/></g><g c_partid="part_pcbtext" c_origin="4280,3056.4" c_rotation="0" c_mirror="" locked="0" layerid="3" c_shapetype="group"><path c_fontSize="4.5" c_fontFamily="" c_text="N" d="M 4280 3053.95L4280 3058.24 M 4280 3053.95L4282.86 3058.24 M 4282.86 3053.95L4282.86 3058.24 " fill="none" stroke-width="0.7" c_note="note_pre"/></g><g c_partid="part_pcbtext" c_origin="4280,3048.4" c_rotation="0" c_mirror="" locked="0" layerid="3" c_shapetype="group" display="none"><path c_fontSize="4.5" c_fontFamily="" c_text="120V N" d="M 4280 3046.76 L 4280.41 3046.56 L 4281.02 3045.95 L 4281.02 3050.24 M 4282.58 3046.97 L 4282.58 3046.76 L 4282.78 3046.35 L 4282.99 3046.15 L 4283.4 3045.95 L 4284.21 3045.95 L 4284.62 3046.15 L 4284.83 3046.35 L 4285.03 3046.76 L 4285.03 3047.17 L 4284.83 3047.58 L 4284.42 3048.2 L 4282.37 3050.24 L 4285.24 3050.24 M 4287.81 3045.95 L 4287.2 3046.15 L 4286.79 3046.76 L 4286.59 3047.79 L 4286.59 3048.4 L 4286.79 3049.42 L 4287.2 3050.04 L 4287.81 3050.24 L 4288.22 3050.24 L 4288.84 3050.04 L 4289.25 3049.42 L 4289.45 3048.4 L 4289.45 3047.79 L 4289.25 3046.76 L 4288.84 3046.15 L 4288.22 3045.95 L 4287.81 3045.95 M 4290.8 3045.95 L 4292.44 3050.24 M 4294.07 3045.95 L 4292.44 3050.24 M 4298.57 3045.95 L 4298.57 3050.24 M 4298.57 3045.95 L 4301.44 3050.24 M 4301.44 3045.95 L 4301.44 3050.24" fill="none" stroke-width="0.5" c_note="note_name"/></g><g c_partid="part_pcbtext" c_origin="4201,3085.45" c_rotation="0" c_mirror="" locked="0" layerid="3" c_shapetype="group"><path c_fontSize="4.5" c_fontFamily="" c_text="5V" d="M 4203.45 3083 L 4201.41 3083 L 4201.2 3084.84 L 4201.41 3084.63 L 4202.02 3084.43 L 4202.64 3084.43 L 4203.25 3084.63 L 4203.66 3085.04 L 4203.86 3085.65 L 4203.86 3086.06 L 4203.66 3086.68 L 4203.25 3087.09 L 4202.64 3087.29 L 4202.02 3087.29 L 4201.41 3087.09 L 4201.2 3086.88 L 4201 3086.47 M 4205.21 3083 L 4206.85 3087.29 M 4208.49 3083 L 4206.85 3087.29" fill="none" stroke-width="0.7" c_note="note_pre"/></g><g c_partid="part_pcbtext" c_origin="4204,3076.4" c_rotation="0" c_mirror="" locked="0" layerid="3" c_shapetype="group" display="none"><path c_fontSize="4.5" c_fontFamily="" c_text="Vcc 5V" d="M 4204 3073.95 L 4205.64 3078.24 M 4207.27 3073.95 L 4205.64 3078.24 M 4211.08 3075.99 L 4210.67 3075.58 L 4210.26 3075.38 L 4209.65 3075.38 L 4209.24 3075.58 L 4208.83 3075.99 L 4208.62 3076.6 L 4208.62 3077.01 L 4208.83 3077.63 L 4209.24 3078.04 L 4209.65 3078.24 L 4210.26 3078.24 L 4210.67 3078.04 L 4211.08 3077.63 M 4214.88 3075.99 L 4214.47 3075.58 L 4214.06 3075.38 L 4213.45 3075.38 L 4213.04 3075.58 L 4212.63 3075.99 L 4212.43 3076.6 L 4212.43 3077.01 L 4212.63 3077.63 L 4213.04 3078.04 L 4213.45 3078.24 L 4214.06 3078.24 L 4214.47 3078.04 L 4214.88 3077.63 M 4221.84 3073.95 L 4219.79 3073.95 L 4219.59 3075.79 L 4219.79 3075.58 L 4220.4 3075.38 L 4221.02 3075.38 L 4221.63 3075.58 L 4222.04 3075.99 L 4222.25 3076.6 L 4222.25 3077.01 L 4222.04 3077.63 L 4221.63 3078.04 L 4221.02 3078.24 L 4220.4 3078.24 L 4219.79 3078.04 L 4219.59 3077.83 L 4219.38 3077.42 M 4223.6 3073.95 L 4225.23 3078.24 M 4226.87 3073.95 L 4225.23 3078.24" fill="none" stroke-width="0.5" c_note="note_name"/></g><g c_partid="part_pcbtext" c_origin="4187,3164.6" c_rotation="0" c_mirror="" locked="0" layerid="3" c_shapetype="group"><path c_fontSize="4.5" c_fontFamily="" c_text="Vout" d="M 4187 3162.15L4188.64 3166.44 M 4190.27 3162.15L4188.64 3166.44 M 4192.65 3163.58L4192.24 3163.78 L4191.83 3164.19 L4191.62 3164.8 L4191.62 3165.21 L4191.83 3165.83 L4192.24 3166.24 L4192.65 3166.44 L4193.26 3166.44 L4193.67 3166.24 L4194.08 3165.83 L4194.28 3165.21 L4194.28 3164.8 L4194.08 3164.19 L4193.67 3163.78 L4193.26 3163.58 L4192.65 3163.58 M 4195.63 3163.58L4195.63 3165.62 L4195.84 3166.24 L4196.25 3166.44 L4196.86 3166.44 L4197.27 3166.24 L4197.88 3165.62 M 4197.88 3163.58L4197.88 3166.44 M 4199.85 3162.15L4199.85 3165.62 L4200.05 3166.24 L4200.46 3166.44 L4200.87 3166.44 M 4199.23 3163.58L4200.66 3163.58 " fill="none" stroke-width="0.7" c_note="note_pre"/></g><g c_partid="part_pcbtext" c_origin="4187,3172.6" c_rotation="180" c_mirror="" locked="0" layerid="3" c_shapetype="group" display="none"><path c_fontSize="4.5" c_fontFamily="" c_text="120Vout L" d="M 4187 3174.24 L 4186.59 3174.44 L 4185.98 3175.05 L 4185.98 3170.76 M 4184.42 3174.03 L 4184.42 3174.24 L 4184.22 3174.65 L 4184.01 3174.85 L 4183.6 3175.05 L 4182.79 3175.05 L 4182.38 3174.85 L 4182.17 3174.65 L 4181.97 3174.24 L 4181.97 3173.83 L 4182.17 3173.42 L 4182.58 3172.8 L 4184.63 3170.76 L 4181.76 3170.76 M 4179.19 3175.05 L 4179.8 3174.85 L 4180.21 3174.24 L 4180.41 3173.21 L 4180.41 3172.6 L 4180.21 3171.58 L 4179.8 3170.96 L 4179.19 3170.76 L 4178.78 3170.76 L 4178.16 3170.96 L 4177.75 3171.58 L 4177.55 3172.6 L 4177.55 3173.21 L 4177.75 3174.24 L 4178.16 3174.85 L 4178.78 3175.05 L 4179.19 3175.05 M 4176.2 3175.05 L 4174.56 3170.76 M 4172.93 3175.05 L 4174.56 3170.76 M 4170.55 3173.62 L 4170.96 3173.42 L 4171.37 3173.01 L 4171.58 3172.4 L 4171.58 3171.99 L 4171.37 3171.37 L 4170.96 3170.96 L 4170.55 3170.76 L 4169.94 3170.76 L 4169.53 3170.96 L 4169.12 3171.37 L 4168.92 3171.99 L 4168.92 3172.4 L 4169.12 3173.01 L 4169.53 3173.42 L 4169.94 3173.62 L 4170.55 3173.62 M 4167.57 3173.62 L 4167.57 3171.58 L 4167.36 3170.96 L 4166.95 3170.76 L 4166.34 3170.76 L 4165.93 3170.96 L 4165.32 3171.58 M 4165.32 3173.62 L 4165.32 3170.76 M 4163.35 3175.05 L 4163.35 3171.58 L 4163.15 3170.96 L 4162.74 3170.76 L 4162.33 3170.76 M 4163.97 3173.62 L 4162.54 3173.62 M 4157.83 3175.05 L 4157.83 3170.76 M 4157.83 3170.76 L 4155.38 3170.76" fill="none" stroke-width="0.5" c_note="note_name"/></g><g c_partid="part_pcbtext" c_origin="4263,3056.45" c_rotation="0" c_mirror="" locked="0" layerid="3" c_shapetype="group"><path c_fontSize="4.5" c_fontFamily="" c_text="120V" d="M 4263 3054.81 L 4263.41 3054.61 L 4264.02 3054 L 4264.02 3058.29 M 4265.58 3055.02 L 4265.58 3054.81 L 4265.78 3054.4 L 4265.99 3054.2 L 4266.4 3054 L 4267.21 3054 L 4267.62 3054.2 L 4267.83 3054.4 L 4268.03 3054.81 L 4268.03 3055.22 L 4267.83 3055.63 L 4267.42 3056.25 L 4265.37 3058.29 L 4268.24 3058.29 M 4270.81 3054 L 4270.2 3054.2 L 4269.79 3054.81 L 4269.59 3055.84 L 4269.59 3056.45 L 4269.79 3057.47 L 4270.2 3058.09 L 4270.81 3058.29 L 4271.22 3058.29 L 4271.84 3058.09 L 4272.25 3057.47 L 4272.45 3056.45 L 4272.45 3055.84 L 4272.25 3054.81 L 4271.84 3054.2 L 4271.22 3054 L 4270.81 3054 M 4273.8 3054 L 4275.44 3058.29 M 4277.07 3054 L 4275.44 3058.29" fill="none" stroke-width="0.7" c_note="note_pre"/></g><g c_partid="part_pcbtext" c_origin="4268,3048.4" c_rotation="0" c_mirror="" locked="0" layerid="3" c_shapetype="group" display="none"><path c_fontSize="4.5" c_fontFamily="" c_text="120 Vout N" d="M 4268 3046.76 L 4268.41 3046.56 L 4269.02 3045.95 L 4269.02 3050.24 M 4270.58 3046.97 L 4270.58 3046.76 L 4270.78 3046.35 L 4270.99 3046.15 L 4271.4 3045.95 L 4272.21 3045.95 L 4272.62 3046.15 L 4272.83 3046.35 L 4273.03 3046.76 L 4273.03 3047.17 L 4272.83 3047.58 L 4272.42 3048.2 L 4270.37 3050.24 L 4273.24 3050.24 M 4275.81 3045.95 L 4275.2 3046.15 L 4274.79 3046.76 L 4274.59 3047.79 L 4274.59 3048.4 L 4274.79 3049.42 L 4275.2 3050.04 L 4275.81 3050.24 L 4276.22 3050.24 L 4276.84 3050.04 L 4277.25 3049.42 L 4277.45 3048.4 L 4277.45 3047.79 L 4277.25 3046.76 L 4276.84 3046.15 L 4276.22 3045.95 L 4275.81 3045.95 M 4281.95 3045.95 L 4283.59 3050.24 M 4285.22 3045.95 L 4283.59 3050.24 M 4287.6 3047.38 L 4287.19 3047.58 L 4286.78 3047.99 L 4286.57 3048.6 L 4286.57 3049.01 L 4286.78 3049.63 L 4287.19 3050.04 L 4287.6 3050.24 L 4288.21 3050.24 L 4288.62 3050.04 L 4289.03 3049.63 L 4289.23 3049.01 L 4289.23 3048.6 L 4289.03 3047.99 L 4288.62 3047.58 L 4288.21 3047.38 L 4287.6 3047.38 M 4290.58 3047.38 L 4290.58 3049.42 L 4290.79 3050.04 L 4291.2 3050.24 L 4291.81 3050.24 L 4292.22 3050.04 L 4292.83 3049.42 M 4292.83 3047.38 L 4292.83 3050.24 M 4294.8 3045.95 L 4294.8 3049.42 L 4295 3050.04 L 4295.41 3050.24 L 4295.82 3050.24 M 4294.18 3047.38 L 4295.61 3047.38 M 4300.32 3045.95 L 4300.32 3050.24 M 4300.32 3045.95 L 4303.18 3050.24 M 4303.18 3045.95 L 4303.18 3050.24" fill="none" stroke-width="0.5" c_note="note_name"/></g><g c_partid="part_pcbtext" c_origin="4199,3107.45" c_rotation="0" c_mirror="" locked="0" layerid="3" c_shapetype="group"><path c_fontSize="4.5" c_fontFamily="" c_text="GND" d="M 4202.07 3106.02 L 4201.86 3105.61 L 4201.45 3105.2 L 4201.05 3105 L 4200.23 3105 L 4199.82 3105.2 L 4199.41 3105.61 L 4199.2 3106.02 L 4199 3106.63 L 4199 3107.65 L 4199.2 3108.27 L 4199.41 3108.68 L 4199.82 3109.09 L 4200.23 3109.29 L 4201.05 3109.29 L 4201.45 3109.09 L 4201.86 3108.68 L 4202.07 3108.27 L 4202.07 3107.65 M 4201.05 3107.65 L 4202.07 3107.65 M 4203.42 3105 L 4203.42 3109.29 M 4203.42 3105 L 4206.28 3109.29 M 4206.28 3105 L 4206.28 3109.29 M 4207.63 3105 L 4207.63 3109.29 M 4207.63 3105 L 4209.06 3105 L 4209.68 3105.2 L 4210.09 3105.61 L 4210.29 3106.02 L 4210.5 3106.63 L 4210.5 3107.65 L 4210.29 3108.27 L 4210.09 3108.68 L 4209.68 3109.09 L 4209.06 3109.29 L 4207.63 3109.29" fill="none" stroke-width="0.7" c_note="note_pre"/></g><g c_partid="part_pcbtext" c_origin="4204,3098.4" c_rotation="0" c_mirror="" locked="0" layerid="3" c_shapetype="group" display="none"><path c_fontSize="4.5" c_fontFamily="" c_text="GND" d="M 4207.07 3096.97 L 4206.86 3096.56 L 4206.45 3096.15 L 4206.05 3095.95 L 4205.23 3095.95 L 4204.82 3096.15 L 4204.41 3096.56 L 4204.2 3096.97 L 4204 3097.58 L 4204 3098.6 L 4204.2 3099.22 L 4204.41 3099.63 L 4204.82 3100.04 L 4205.23 3100.24 L 4206.05 3100.24 L 4206.45 3100.04 L 4206.86 3099.63 L 4207.07 3099.22 L 4207.07 3098.6 M 4206.05 3098.6 L 4207.07 3098.6 M 4208.42 3095.95 L 4208.42 3100.24 M 4208.42 3095.95 L 4211.28 3100.24 M 4211.28 3095.95 L 4211.28 3100.24 M 4212.63 3095.95 L 4212.63 3100.24 M 4212.63 3095.95 L 4214.06 3095.95 L 4214.68 3096.15 L 4215.09 3096.56 L 4215.29 3096.97 L 4215.5 3097.58 L 4215.5 3098.6 L 4215.29 3099.22 L 4215.09 3099.63 L 4214.68 3100.04 L 4214.06 3100.24 L 4212.63 3100.24" fill="none" stroke-width="0.5" c_note="note_name"/></g><g c_partid="part_pcbtext" c_origin="4168,3084.45" c_rotation="0" c_mirror="" locked="0" layerid="3" c_shapetype="group"><path c_fontSize="4.5" c_fontFamily="" c_text="Button" d="M 4168 3082 L 4168 3086.29 M 4168 3082 L 4169.84 3082 L 4170.45 3082.2 L 4170.66 3082.4 L 4170.86 3082.81 L 4170.86 3083.22 L 4170.66 3083.63 L 4170.45 3083.84 L 4169.84 3084.04 M 4168 3084.04 L 4169.84 3084.04 L 4170.45 3084.25 L 4170.66 3084.45 L 4170.86 3084.86 L 4170.86 3085.47 L 4170.66 3085.88 L 4170.45 3086.09 L 4169.84 3086.29 L 4168 3086.29 M 4172.21 3083.43 L 4172.21 3085.47 L 4172.42 3086.09 L 4172.83 3086.29 L 4173.44 3086.29 L 4173.85 3086.09 L 4174.46 3085.47 M 4174.46 3083.43 L 4174.46 3086.29 M 4176.43 3082 L 4176.43 3085.47 L 4176.63 3086.09 L 4177.04 3086.29 L 4177.45 3086.29 M 4175.81 3083.43 L 4177.25 3083.43 M 4179.41 3082 L 4179.41 3085.47 L 4179.62 3086.09 L 4180.03 3086.29 L 4180.44 3086.29 M 4178.8 3083.43 L 4180.23 3083.43 M 4182.81 3083.43 L 4182.4 3083.63 L 4181.99 3084.04 L 4181.79 3084.65 L 4181.79 3085.06 L 4181.99 3085.68 L 4182.4 3086.09 L 4182.81 3086.29 L 4183.42 3086.29 L 4183.83 3086.09 L 4184.24 3085.68 L 4184.45 3085.06 L 4184.45 3084.65 L 4184.24 3084.04 L 4183.83 3083.63 L 4183.42 3083.43 L 4182.81 3083.43 M 4185.8 3083.43 L 4185.8 3086.29 M 4185.8 3084.25 L 4186.41 3083.63 L 4186.82 3083.43 L 4187.43 3083.43 L 4187.84 3083.63 L 4188.05 3084.25 L 4188.05 3086.29" fill="none" stroke-width="0.7" c_note="note_pre"/></g><g c_partid="part_pcbtext" c_origin="4187,3058.4" c_rotation="0" c_mirror="" locked="0" layerid="3" c_shapetype="group" display="none"><path c_fontSize="4.5" c_fontFamily="" c_text="Button" d="M 4187 3055.95 L 4187 3060.24 M 4187 3055.95 L 4188.84 3055.95 L 4189.45 3056.15 L 4189.66 3056.35 L 4189.86 3056.76 L 4189.86 3057.17 L 4189.66 3057.58 L 4189.45 3057.79 L 4188.84 3057.99 M 4187 3057.99 L 4188.84 3057.99 L 4189.45 3058.2 L 4189.66 3058.4 L 4189.86 3058.81 L 4189.86 3059.42 L 4189.66 3059.83 L 4189.45 3060.04 L 4188.84 3060.24 L 4187 3060.24 M 4191.21 3057.38 L 4191.21 3059.42 L 4191.42 3060.04 L 4191.83 3060.24 L 4192.44 3060.24 L 4192.85 3060.04 L 4193.46 3059.42 M 4193.46 3057.38 L 4193.46 3060.24 M 4195.43 3055.95 L 4195.43 3059.42 L 4195.63 3060.04 L 4196.04 3060.24 L 4196.45 3060.24 M 4194.81 3057.38 L 4196.25 3057.38 M 4198.41 3055.95 L 4198.41 3059.42 L 4198.62 3060.04 L 4199.03 3060.24 L 4199.44 3060.24 M 4197.8 3057.38 L 4199.23 3057.38 M 4201.81 3057.38 L 4201.4 3057.58 L 4200.99 3057.99 L 4200.79 3058.6 L 4200.79 3059.01 L 4200.99 3059.63 L 4201.4 3060.04 L 4201.81 3060.24 L 4202.42 3060.24 L 4202.83 3060.04 L 4203.24 3059.63 L 4203.45 3059.01 L 4203.45 3058.6 L 4203.24 3057.99 L 4202.83 3057.58 L 4202.42 3057.38 L 4201.81 3057.38 M 4204.8 3057.38 L 4204.8 3060.24 M 4204.8 3058.2 L 4205.41 3057.58 L 4205.82 3057.38 L 4206.43 3057.38 L 4206.84 3057.58 L 4207.05 3058.2 L 4207.05 3060.24" fill="none" stroke-width="0.5" c_note="note_name"/></g><g c_partid="part_pcbtext" c_origin="4169,3061.45" c_rotation="0" c_mirror="" locked="0" layerid="3" c_shapetype="group"><path c_fontSize="4.5" c_fontFamily="" c_text="LED" d="M 4169 3059 L 4169 3063.29 M 4169 3063.29 L 4171.45 3063.29 M 4172.8 3059 L 4172.8 3063.29 M 4172.8 3059 L 4175.46 3059 M 4172.8 3061.04 L 4174.44 3061.04 M 4172.8 3063.29 L 4175.46 3063.29 M 4176.81 3059 L 4176.81 3063.29 M 4176.81 3059 L 4178.25 3059 L 4178.86 3059.2 L 4179.27 3059.61 L 4179.47 3060.02 L 4179.68 3060.63 L 4179.68 3061.65 L 4179.47 3062.27 L 4179.27 3062.68 L 4178.86 3063.09 L 4178.25 3063.29 L 4176.81 3063.29" fill="none" stroke-width="0.7" c_note="note_pre"/></g><g c_partid="part_pcbtext" c_origin="4187,3041.4" c_rotation="0" c_mirror="" locked="0" layerid="3" c_shapetype="group" display="none"><path c_fontSize="4.5" c_fontFamily="" c_text="LED" d="M 4187 3038.95 L 4187 3043.24 M 4187 3043.24 L 4189.45 3043.24 M 4190.8 3038.95 L 4190.8 3043.24 M 4190.8 3038.95 L 4193.46 3038.95 M 4190.8 3040.99 L 4192.44 3040.99 M 4190.8 3043.24 L 4193.46 3043.24 M 4194.81 3038.95 L 4194.81 3043.24 M 4194.81 3038.95 L 4196.25 3038.95 L 4196.86 3039.15 L 4197.27 3039.56 L 4197.47 3039.97 L 4197.68 3040.58 L 4197.68 3041.6 L 4197.47 3042.22 L 4197.27 3042.63 L 4196.86 3043.04 L 4196.25 3043.24 L 4194.81 3043.24" fill="none" stroke-width="0.5" c_note="note_name"/></g><g c_partid="part_pcbtext" c_origin="4106.45,3183.3" c_rotation="90" c_mirror="" locked="0" layerid="3" c_shapetype="group"><path c_fontSize="4.5" c_fontFamily="" c_text="RELAY1" d="M 4104.0001 3183.3 L 4108.2901 3183.3 M 4104.0001 3183.3 L 4104.0001 3181.46 L 4104.2001 3180.85 L 4104.4001 3180.64 L 4104.8101 3180.44 L 4105.2201 3180.44 L 4105.6301 3180.64 L 4105.8401 3180.85 L 4106.0401 3181.46 L 4106.0401 3183.3 M 4106.0401 3181.87 L 4108.2901 3180.44 M 4104.0001 3179.09 L 4108.2901 3179.09 M 4104.0001 3179.09 L 4104.0001 3176.43 M 4106.0401 3179.09 L 4106.0401 3177.45 M 4108.2901 3179.09 L 4108.2901 3176.43 M 4104.0001 3175.08 L 4108.2901 3175.08 M 4108.2901 3175.08 L 4108.2901 3172.62 M 4104.0001 3169.64 L 4108.2901 3171.27 M 4104.0001 3169.64 L 4108.2901 3168 M 4106.8601 3170.66 L 4106.8601 3168.61 M 4104.0001 3166.65 L 4106.0401 3165.01 L 4108.2901 3165.01 M 4104.0001 3163.38 L 4106.0401 3165.01 M 4104.8101 3162.03 L 4104.6101 3161.62 L 4104.0001 3161 L 4108.2901 3161" fill="none" stroke-width="0.7" c_note="note_pre"/></g><g c_partid="part_pcbtext" c_origin="4150.62,3126.09" c_rotation="270" c_mirror="" locked="0" layerid="3" c_shapetype="group" display="none"><path c_fontSize="4.5" c_fontFamily="" c_text="SRD-05VDC-SL-C" d="M 4152.46 3128.95 L 4152.87 3128.54 L 4153.07 3127.93 L 4153.07 3127.11 L 4152.87 3126.5 L 4152.46 3126.09 L 4152.05 3126.09 L 4151.64 3126.29 L 4151.44 3126.5 L 4151.23 3126.91 L 4150.82 3128.14 L 4150.62 3128.54 L 4150.42 3128.75 L 4150.01 3128.95 L 4149.39 3128.95 L 4148.98 3128.54 L 4148.78 3127.93 L 4148.78 3127.11 L 4148.98 3126.5 L 4149.39 3126.09 M 4153.07 3130.3 L 4148.78 3130.3 M 4153.07 3130.3 L 4153.07 3132.14 L 4152.87 3132.76 L 4152.67 3132.96 L 4152.26 3133.17 L 4151.85 3133.17 L 4151.44 3132.96 L 4151.23 3132.76 L 4151.03 3132.14 L 4151.03 3130.3 M 4151.03 3131.74 L 4148.78 3133.17 M 4153.07 3134.52 L 4148.78 3134.52 M 4153.07 3134.52 L 4153.07 3135.95 L 4152.87 3136.56 L 4152.46 3136.97 L 4152.05 3137.18 L 4151.44 3137.38 L 4150.42 3137.38 L 4149.8 3137.18 L 4149.39 3136.97 L 4148.98 3136.56 L 4148.78 3135.95 L 4148.78 3134.52 M 4150.62 3138.73 L 4150.62 3142.41 M 4153.07 3144.99 L 4152.87 3144.38 L 4152.26 3143.97 L 4151.23 3143.76 L 4150.62 3143.76 L 4149.6 3143.97 L 4148.98 3144.38 L 4148.78 3144.99 L 4148.78 3145.4 L 4148.98 3146.01 L 4149.6 3146.42 L 4150.62 3146.63 L 4151.23 3146.63 L 4152.26 3146.42 L 4152.87 3146.01 L 4153.07 3145.4 L 4153.07 3144.99 M 4153.07 3150.43 L 4153.07 3148.39 L 4151.23 3148.18 L 4151.44 3148.39 L 4151.64 3149 L 4151.64 3149.61 L 4151.44 3150.23 L 4151.03 3150.64 L 4150.42 3150.84 L 4150.01 3150.84 L 4149.39 3150.64 L 4148.98 3150.23 L 4148.78 3149.61 L 4148.78 3149 L 4148.98 3148.39 L 4149.19 3148.18 L 4149.6 3147.98 M 4153.07 3152.19 L 4148.78 3153.83 M 4153.07 3155.46 L 4148.78 3153.83 M 4153.07 3156.81 L 4148.78 3156.81 M 4153.07 3156.81 L 4153.07 3158.24 L 4152.87 3158.86 L 4152.46 3159.27 L 4152.05 3159.47 L 4151.44 3159.68 L 4150.42 3159.68 L 4149.8 3159.47 L 4149.39 3159.27 L 4148.98 3158.86 L 4148.78 3158.24 L 4148.78 3156.81 M 4152.05 3164.09 L 4152.46 3163.89 L 4152.87 3163.48 L 4153.07 3163.07 L 4153.07 3162.25 L 4152.87 3161.84 L 4152.46 3161.44 L 4152.05 3161.23 L 4151.44 3161.03 L 4150.42 3161.03 L 4149.8 3161.23 L 4149.39 3161.44 L 4148.98 3161.84 L 4148.78 3162.25 L 4148.78 3163.07 L 4148.98 3163.48 L 4149.39 3163.89 L 4149.8 3164.09 M 4150.62 3165.44 L 4150.62 3169.13 M 4152.46 3173.34 L 4152.87 3172.93 L 4153.07 3172.32 L 4153.07 3171.5 L 4152.87 3170.89 L 4152.46 3170.48 L 4152.05 3170.48 L 4151.64 3170.68 L 4151.44 3170.89 L 4151.23 3171.29 L 4150.82 3172.52 L 4150.62 3172.93 L 4150.42 3173.14 L 4150.01 3173.34 L 4149.39 3173.34 L 4148.98 3172.93 L 4148.78 3172.32 L 4148.78 3171.5 L 4148.98 3170.89 L 4149.39 3170.48 M 4153.07 3174.69 L 4148.78 3174.69 M 4148.78 3174.69 L 4148.78 3177.14 M 4150.62 3178.49 L 4150.62 3182.18 M 4152.05 3186.59 L 4152.46 3186.39 L 4152.87 3185.98 L 4153.07 3185.57 L 4153.07 3184.75 L 4152.87 3184.34 L 4152.46 3183.94 L 4152.05 3183.73 L 4151.44 3183.53 L 4150.42 3183.53 L 4149.8 3183.73 L 4149.39 3183.94 L 4148.98 3184.34 L 4148.78 3184.75 L 4148.78 3185.57 L 4148.98 3185.98 L 4149.39 3186.39 L 4149.8 3186.59" fill="none" stroke-width="0.5" c_note="note_name"/></g><g c_partid="part_pcbtext" c_origin="4136.45,3253.03" c_rotation="90" c_mirror="" locked="0" layerid="3" c_shapetype="group"><path c_fontSize="4.5" c_fontFamily="" c_text="F1" d="M 4134.0002 3253.03 L 4138.2902 3253.03 M 4134.0002 3253.03 L 4134.0002 3250.37 M 4136.0402 3253.03 L 4136.0402 3251.39 M 4134.8102 3249.02 L 4134.6102 3248.61 L 4134.0002 3248 L 4138.2902 3248" fill="none" stroke-width="0.7" c_note="note_pre"/></g><g c_partid="part_pcbtext" c_origin="4199.54,3285" c_rotation="270" c_mirror="" locked="0" layerid="3" c_shapetype="group" display="none"><path c_fontSize="4.5" c_fontFamily="" c_text="Fuse 2A 20T 250VAC" d="M 4201.99 3285 L 4197.7 3285 M 4201.99 3285 L 4201.99 3287.66 M 4199.95 3285 L 4199.95 3286.64 M 4200.56 3289.01 L 4198.52 3289.01 L 4197.9 3289.21 L 4197.7 3289.62 L 4197.7 3290.24 L 4197.9 3290.65 L 4198.52 3291.26 M 4200.56 3291.26 L 4197.7 3291.26 M 4199.95 3294.86 L 4200.36 3294.65 L 4200.56 3294.04 L 4200.56 3293.43 L 4200.36 3292.81 L 4199.95 3292.61 L 4199.54 3292.81 L 4199.34 3293.22 L 4199.13 3294.25 L 4198.93 3294.65 L 4198.52 3294.86 L 4198.31 3294.86 L 4197.9 3294.65 L 4197.7 3294.04 L 4197.7 3293.43 L 4197.9 3292.81 L 4198.31 3292.61 M 4199.34 3296.21 L 4199.34 3298.66 L 4199.74 3298.66 L 4200.15 3298.46 L 4200.36 3298.25 L 4200.56 3297.85 L 4200.56 3297.23 L 4200.36 3296.82 L 4199.95 3296.41 L 4199.34 3296.21 L 4198.93 3296.21 L 4198.31 3296.41 L 4197.9 3296.82 L 4197.7 3297.23 L 4197.7 3297.85 L 4197.9 3298.25 L 4198.31 3298.66 M 4200.97 3303.37 L 4201.18 3303.37 L 4201.59 3303.57 L 4201.79 3303.78 L 4201.99 3304.19 L 4201.99 3305 L 4201.79 3305.41 L 4201.59 3305.62 L 4201.18 3305.82 L 4200.77 3305.82 L 4200.36 3305.62 L 4199.74 3305.21 L 4197.7 3303.16 L 4197.7 3306.03 M 4201.99 3309.01 L 4197.7 3307.38 M 4201.99 3309.01 L 4197.7 3310.65 M 4199.13 3307.99 L 4199.13 3310.04 M 4200.97 3315.35 L 4201.18 3315.35 L 4201.59 3315.56 L 4201.79 3315.76 L 4201.99 3316.17 L 4201.99 3316.99 L 4201.79 3317.4 L 4201.59 3317.6 L 4201.18 3317.81 L 4200.77 3317.81 L 4200.36 3317.6 L 4199.74 3317.2 L 4197.7 3315.15 L 4197.7 3318.01 M 4201.99 3320.59 L 4201.79 3319.98 L 4201.18 3319.57 L 4200.15 3319.36 L 4199.54 3319.36 L 4198.52 3319.57 L 4197.9 3319.98 L 4197.7 3320.59 L 4197.7 3321 L 4197.9 3321.61 L 4198.52 3322.02 L 4199.54 3322.23 L 4200.15 3322.23 L 4201.18 3322.02 L 4201.79 3321.61 L 4201.99 3321 L 4201.99 3320.59 M 4201.99 3325.01 L 4197.7 3325.01 M 4201.99 3323.58 L 4201.99 3326.44 M 4200.97 3331.15 L 4201.18 3331.15 L 4201.59 3331.35 L 4201.79 3331.55 L 4201.99 3331.96 L 4201.99 3332.78 L 4201.79 3333.19 L 4201.59 3333.4 L 4201.18 3333.6 L 4200.77 3333.6 L 4200.36 3333.4 L 4199.74 3332.99 L 4197.7 3330.94 L 4197.7 3333.8 M 4201.99 3337.61 L 4201.99 3335.56 L 4200.15 3335.36 L 4200.36 3335.56 L 4200.56 3336.18 L 4200.56 3336.79 L 4200.36 3337.4 L 4199.95 3337.81 L 4199.34 3338.02 L 4198.93 3338.02 L 4198.31 3337.81 L 4197.9 3337.4 L 4197.7 3336.79 L 4197.7 3336.18 L 4197.9 3335.56 L 4198.11 3335.36 L 4198.52 3335.15 M 4201.99 3340.6 L 4201.79 3339.98 L 4201.18 3339.57 L 4200.15 3339.37 L 4199.54 3339.37 L 4198.52 3339.57 L 4197.9 3339.98 L 4197.7 3340.6 L 4197.7 3341 L 4197.9 3341.62 L 4198.52 3342.03 L 4199.54 3342.23 L 4200.15 3342.23 L 4201.18 3342.03 L 4201.79 3341.62 L 4201.99 3341 L 4201.99 3340.6 M 4201.99 3343.58 L 4197.7 3345.22 M 4201.99 3346.85 L 4197.7 3345.22 M 4201.99 3349.84 L 4197.7 3348.2 M 4201.99 3349.84 L 4197.7 3351.48 M 4199.13 3348.82 L 4199.13 3350.86 M 4200.97 3355.9 L 4201.38 3355.69 L 4201.79 3355.28 L 4201.99 3354.87 L 4201.99 3354.05 L 4201.79 3353.65 L 4201.38 3353.24 L 4200.97 3353.03 L 4200.36 3352.83 L 4199.34 3352.83 L 4198.72 3353.03 L 4198.31 3353.24 L 4197.9 3353.65 L 4197.7 3354.05 L 4197.7 3354.87 L 4197.9 3355.28 L 4198.31 3355.69 L 4198.72 3355.9" fill="none" stroke-width="0.5" c_note="note_name"/></g><rect x="4051.008" y="3122" width="127.992" height="107.992" stroke-width="1" fill="none" transform="" layerid="3" locked="0" c_shapetype="line"/><path d="M 4119 3067 A 4.99999 4.99999 0 0 1 4119 3077" locked="0" c_shapetype="line" fill="none" stroke-width="1" c_helper_type="arc2" layerid="3"/><path d="M 4183.43 3109.79 A 0.7874 0.7874 0 1 0 4183.42 3109.79" locked="0" c_shapetype="line" fill="none" stroke-width="1.5748" c_helper_type="arc2" layerid="3"/><polyline points="4184.78 3269.3 4085.22 3269.3" stroke-width="1.524" c_shapetype="line" stroke-linecap="round" fill="none" layerid="3" locked="0"/><polyline points="4184.78 3230.7 4184.78 3269.3" stroke-width="1.524" c_shapetype="line" stroke-linecap="round" fill="none" layerid="3" locked="0"/><polyline points="4085.22 3230.7 4184.78 3230.7" stroke-width="1.524" c_shapetype="line" stroke-linecap="round" fill="none" layerid="3" locked="0"/><polyline points="4085.22 3269.3 4085.22 3230.7" stroke-width="1.524" c_shapetype="line" stroke-linecap="round" fill="none" layerid="3" locked="0"/><polyline points="4112.65 3269.3 4112.65 3230.7" stroke-width="1.524" c_shapetype="line" stroke-linecap="round" fill="none" layerid="3" locked="0"/><polyline points="4157.35 3230.7 4157.35 3269.3" stroke-width="1.524" c_shapetype="line" stroke-linecap="round" fill="none" layerid="3" locked="0"/><polyline points="4157.35 3239.84 4112.65 3239.84" stroke-width="1.524" c_shapetype="line" stroke-linecap="round" fill="none" layerid="3" locked="0"/><polyline points="4112.65 3260.16 4157.35 3260.16" stroke-width="1.524" c_shapetype="line" stroke-linecap="round" fill="none" layerid="3" locked="0"/><polyline points="4192 3064 4192 3061.5" stroke-width="0.79921" c_shapetype="line" stroke-linecap="round" fill="none" layerid="3" locked="0"/><polyline points="4192 3064 4182 3064 4182 3054 4192 3054 4192 3061.5" stroke-width="0.8" c_shapetype="line" stroke-linecap="round" fill="none" layerid="3" locked="0"/><polyline points="4192 3081 4192 3078.5" stroke-width="0.79921" c_shapetype="line" stroke-linecap="round" fill="none" layerid="3" locked="0"/><polyline points="4192 3081 4182 3081 4182 3071 4192 3071 4192 3078.5" stroke-width="0.8" c_shapetype="line" stroke-linecap="round" fill="none" layerid="3" locked="0"/><polyline points="4209 3121 4209 3118.5" stroke-width="0.79921" c_shapetype="line" stroke-linecap="round" fill="none" layerid="3" locked="0"/><polyline points="4209 3121 4199 3121 4199 3111 4209 3111 4209 3118.5" stroke-width="0.8" c_shapetype="line" stroke-linecap="round" fill="none" layerid="3" locked="0"/><polyline points="4273 3071 4273 3068.5" stroke-width="0.79921" c_shapetype="line" stroke-linecap="round" fill="none" layerid="3" locked="0"/><polyline points="4273 3071 4263 3071 4263 3061 4273 3061 4273 3068.5" stroke-width="0.8" c_shapetype="line" stroke-linecap="round" fill="none" layerid="3" locked="0"/><polyline points="4182 3150 4182 3152.5" stroke-width="0.79921" c_shapetype="line" stroke-linecap="round" fill="none" layerid="3" locked="0"/><polyline points="4182 3150 4192 3150 4192 3160 4182 3160 4182 3152.5" stroke-width="0.8" c_shapetype="line" stroke-linecap="round" fill="none" layerid="3" locked="0"/><polyline points="4209 3099 4209 3096.5" stroke-width="0.79921" c_shapetype="line" stroke-linecap="round" fill="none" layerid="3" locked="0"/><polyline points="4209 3099 4199 3099 4199 3089 4209 3089 4209 3096.5" stroke-width="0.8" c_shapetype="line" stroke-linecap="round" fill="none" layerid="3" locked="0"/><polyline points="4285 3071 4285 3068.5" stroke-width="0.79921" c_shapetype="line" stroke-linecap="round" fill="none" layerid="3" locked="0"/><polyline points="4285 3071 4275 3071 4275 3061 4285 3061 4285 3068.5" stroke-width="0.8" c_shapetype="line" stroke-linecap="round" fill="none" layerid="3" locked="0"/><polyline points="4197 3267 4197 3264.5" stroke-width="0.79921" c_shapetype="line" stroke-linecap="round" fill="none" layerid="3" locked="0"/><polyline points="4197 3267 4187 3267 4187 3257 4197 3257 4197 3264.5" stroke-width="0.8" c_shapetype="line" stroke-linecap="round" fill="none" layerid="3" locked="0"/><polyline points="4201 3211.547 4201 3207.217" stroke-width="1" c_shapetype="line" stroke-linecap="round" fill="none" layerid="3" locked="0"/><polyline points="4201 3173.752 4201 3167.453" stroke-width="1" c_shapetype="line" stroke-linecap="round" fill="none" layerid="3" locked="0"/><polyline points="4212.024 3173.752 4212.024 3207.217 4189.976 3207.217 4189.976 3173.752 4212.024 3173.752" stroke-width="1" c_shapetype="line" stroke-linecap="round" fill="none" layerid="3" locked="0"/><polyline points="4119 3067 4119 3062" stroke-width="1" c_shapetype="line" stroke-linecap="round" fill="none" layerid="3" locked="0"/><polyline points="4119 3082 4119 3077" stroke-width="1" c_shapetype="line" stroke-linecap="round" fill="none" layerid="3" locked="0"/><polyline points="4159 3082 4119 3082" stroke-width="1" c_shapetype="line" stroke-linecap="round" fill="none" layerid="3" locked="0"/><polyline points="4159 3062 4119 3062" stroke-width="1" c_shapetype="line" stroke-linecap="round" fill="none" layerid="3" locked="0"/><polyline points="4159 3082 4159 3062" stroke-width="1" c_shapetype="line" stroke-linecap="round" fill="none" layerid="3" locked="0"/><polyline points="4215.6 3054.3 4240.4 3054.3" stroke-width="1" c_shapetype="line" stroke-linecap="round" fill="none" layerid="3" locked="0"/><polyline points="4215.6 3063.7 4215.6 3054.3" stroke-width="1" c_shapetype="line" stroke-linecap="round" fill="none" layerid="3" locked="0"/><polyline points="4240.4 3063.7 4215.6 3063.7" stroke-width="1" c_shapetype="line" stroke-linecap="round" fill="none" layerid="3" locked="0"/><polyline points="4240.4 3054.3 4240.4 3063.7" stroke-width="1" c_shapetype="line" stroke-linecap="round" fill="none" layerid="3" locked="0"/><polyline points="4215.6 3067.3 4240.4 3067.3" stroke-width="1" c_shapetype="line" stroke-linecap="round" fill="none" layerid="3" locked="0"/><polyline points="4215.6 3076.7 4215.6 3067.3" stroke-width="1" c_shapetype="line" stroke-linecap="round" fill="none" layerid="3" locked="0"/><polyline points="4240.4 3076.7 4215.6 3076.7" stroke-width="1" c_shapetype="line" stroke-linecap="round" fill="none" layerid="3" locked="0"/><polyline points="4240.4 3067.3 4240.4 3076.7" stroke-width="1" c_shapetype="line" stroke-linecap="round" fill="none" layerid="3" locked="0"/><polyline points="4102 3081.6 4102 3092.4" stroke-width="0.9" c_shapetype="line" stroke-linecap="round" fill="none" layerid="3" locked="0"/><polyline points="4084 3081.6 4104.5 3081.6 4104.5 3092.4 4084 3092.4 4084 3081.6" stroke-width="0.9" c_shapetype="line" stroke-linecap="round" fill="none" layerid="3" locked="0"/><polyline points="4070.453 3107 4074.783 3107" stroke-width="1" c_shapetype="line" stroke-linecap="round" fill="none" layerid="3" locked="0"/><polyline points="4108.248 3107 4114.547 3107" stroke-width="1" c_shapetype="line" stroke-linecap="round" fill="none" layerid="3" locked="0"/><polyline points="4108.248 3118.024 4074.783 3118.024 4074.783 3095.976 4108.248 3095.976 4108.248 3118.024" stroke-width="1" c_shapetype="line" stroke-linecap="round" fill="none" layerid="3" locked="0"/><polyline points="4145.634 3118.055 4187.366 3118.055" stroke-width="1" c_shapetype="line" stroke-linecap="round" fill="none" layerid="3" locked="0"/><polyline points="4187.366 3120.024 4145.634 3120.024 4145.634 3101.126 4187.366 3101.126 4187.366 3120.024" stroke-width="1" c_shapetype="line" stroke-linecap="round" fill="none" layerid="3" locked="0"/><polyline points="4237.394 3263.427 4237.394 3242.567" stroke-width="1" c_shapetype="line" stroke-linecap="round" fill="none" layerid="3" locked="0"/><polyline points="4286.606 3263.433 4237.386 3263.433" stroke-width="1" c_shapetype="line" stroke-linecap="round" fill="none" layerid="3" locked="0"/><polyline points="4286.606 3242.567 4286.606 3263.433" stroke-width="1" c_shapetype="line" stroke-linecap="round" fill="none" layerid="3" locked="0"/><polyline points="4237.393 3242.567 4286.606 3242.567" stroke-width="1" c_shapetype="line" stroke-linecap="round" fill="none" layerid="3" locked="0"/><polyline points="4213.457 3080.473 4320.543 3080.473" stroke-width="1" c_shapetype="line" stroke-linecap="round" fill="none" layerid="3" locked="0"/><polyline points="4320.543 3224.961 4320.543 3080.473" stroke-width="1" c_shapetype="line" stroke-linecap="round" fill="none" layerid="3" locked="0"/><polyline points="4213.457 3224.961 4320.543 3224.961" stroke-width="1" c_shapetype="line" stroke-linecap="round" fill="none" layerid="3" locked="0"/><polyline points="4213.457 3224.961 4213.457 3080.473" stroke-width="1" c_shapetype="line" stroke-linecap="round" fill="none" layerid="3" locked="0"/><g c_partid="part_via" c_etype="pinpart" c_shapetype="group" c_origin="4166,3208.811" layerid="7"><circle cx="4166" cy="3208.811" r="4.5276" stroke-width="0"/><circle cx="4166" cy="3208.811" r="4.5276" stroke-width="0"/></g><g c_partid="part_via" c_etype="pinpart" c_shapetype="group" c_origin="4143,3208.811" layerid="7"><circle cx="4143" cy="3208.811" r="4.5276" stroke-width="0"/><circle cx="4143" cy="3208.811" r="4.5276" stroke-width="0"/></g><g c_partid="part_via" c_etype="pinpart" c_shapetype="group" c_origin="4133,3138.811" layerid="7"><circle cx="4133" cy="3138.811" r="4.5276" stroke-width="0"/><circle cx="4133" cy="3138.811" r="4.5276" stroke-width="0"/></g><g c_partid="part_via" c_etype="pinpart" c_shapetype="group" c_origin="4083,3193.811" layerid="7"><circle cx="4083" cy="3193.811" r="2.5591" stroke-width="0"/><circle cx="4083" cy="3193.811" r="2.5591" stroke-width="0"/></g><g c_partid="part_via" c_etype="pinpart" c_shapetype="group" c_origin="4083,3153.811" layerid="7"><circle cx="4083" cy="3153.811" r="2.5591" stroke-width="0"/><circle cx="4083" cy="3153.811" r="2.5591" stroke-width="0"/></g><g c_partid="part_via" c_etype="pinpart" c_shapetype="group" c_origin="4065,3066" layerid="7"><circle cx="4065" cy="3066" r="8" stroke-width="0"/><circle cx="4065" cy="3066" r="8" stroke-width="0"/></g><g c_partid="part_via" c_etype="pinpart" c_shapetype="group" c_origin="4067,3254" layerid="7"><circle cx="4067" cy="3254" r="8" stroke-width="0"/><circle cx="4067" cy="3254" r="8" stroke-width="0"/></g><g c_partid="part_via" c_etype="pinpart" c_shapetype="group" c_origin="4305,3254" layerid="7"><circle cx="4305" cy="3254" r="8" stroke-width="0"/><circle cx="4305" cy="3254" r="8" stroke-width="0"/></g><g c_partid="part_via" c_etype="pinpart" c_shapetype="group" c_origin="4307,3066" layerid="7"><circle cx="4307" cy="3066" r="8" stroke-width="0"/><circle cx="4307" cy="3066" r="8" stroke-width="0"/></g><g c_partid="part_pad" c_etype="pinpart" c_origin="4225.66,3210" layerid="7" plated="Y" locked="0" c_rotation="90" c_width="7.0866" c_height="7.0866" c_shape="ELLIPSE" pasteExpansion="0" solderExpansion="0.4"><ellipse cx="4225.66" cy="3210" rx="3.5433" ry="3.5433" layerid="7" stroke-width="0"/><circle cx="4225.66" cy="3210" r="1.9685" layerid="7" stroke-width="0"/></g><g c_partid="part_pad" c_etype="pinpart" c_origin="4308.34,3210" layerid="7" plated="Y" locked="0" c_rotation="90" c_width="7.0866" c_height="7.0866" c_shape="ELLIPSE" pasteExpansion="0" solderExpansion="0.4"><ellipse cx="4308.34" cy="3210" rx="3.5433" ry="3.5433" layerid="7" stroke-width="0"/><circle cx="4308.34" cy="3210" r="1.9685" layerid="7" stroke-width="0"/></g><g c_partid="part_pad" c_etype="pinpart" c_origin="4308.34,3125.35" layerid="7" plated="Y" locked="0" c_rotation="90" c_width="7.0866" c_height="7.0866" c_shape="ELLIPSE" pasteExpansion="0" solderExpansion="0.4"><ellipse cx="4308.34" cy="3125.35" rx="3.5433" ry="3.5433" layerid="7" stroke-width="0"/><circle cx="4308.34" cy="3125.35" r="1.9685" layerid="7" stroke-width="0"/></g><g c_partid="part_pad" c_etype="pinpart" c_origin="4225.66,3110.59" layerid="7" plated="Y" locked="0" c_rotation="90" c_width="7.0866" c_height="7.0866" c_shape="ELLIPSE" pasteExpansion="0" solderExpansion="0.4"><ellipse cx="4225.66" cy="3110.59" rx="3.5433" ry="3.5433" layerid="7" stroke-width="0"/><circle cx="4225.66" cy="3110.59" r="1.9685" layerid="7" stroke-width="0"/></g><g c_partid="part_pad" c_etype="pinpart" c_origin="4308.34,3095.83" layerid="7" plated="Y" locked="0" c_rotation="90" c_width="7.0866" c_height="7.0866" c_shape="ELLIPSE" pasteExpansion="0" solderExpansion="0.4"><ellipse cx="4308.34" cy="3095.83" rx="3.5433" ry="3.5433" layerid="7" stroke-width="0"/><circle cx="4308.34" cy="3095.83" r="1.9685" layerid="7" stroke-width="0"/></g><g c_partid="part_pad" c_etype="pinpart" c_origin="4225.66,3125.35" layerid="7" plated="Y" locked="0" c_rotation="90" c_width="7.0866" c_height="7.0866" c_shape="ELLIPSE" pasteExpansion="0" solderExpansion="0.4"><ellipse cx="4225.66" cy="3125.35" rx="3.5433" ry="3.5433" layerid="7" stroke-width="0"/><circle cx="4225.66" cy="3125.35" r="1.9685" layerid="7" stroke-width="0"/></g><g c_partid="part_pad" c_etype="pinpart" c_origin="4225.66,3095.83" layerid="7" plated="Y" locked="0" c_rotation="90" c_width="7.0866" c_height="7.0866" c_shape="ELLIPSE" pasteExpansion="0" solderExpansion="0.4"><ellipse cx="4225.66" cy="3095.83" rx="3.5433" ry="3.5433" layerid="7" stroke-width="0"/><circle cx="4225.66" cy="3095.83" r="1.9685" layerid="7" stroke-width="0"/></g><g c_partid="part_pad" c_etype="pinpart" c_origin="4247.24,3253" layerid="7" plated="Y" locked="0" c_rotation="0" c_width="7.874" c_height="7.874" c_shape="ELLIPSE" pasteExpansion="0" solderExpansion="0.4"><ellipse cx="4247.24" cy="3253" rx="3.937" ry="3.937" layerid="7" stroke-width="0"/><circle cx="4247.24" cy="3253" r="2.362" layerid="7" stroke-width="0"/></g><g c_partid="part_pad" c_etype="pinpart" c_origin="4276.76,3253" layerid="7" plated="Y" locked="0" c_rotation="0" c_width="7.874" c_height="7.874" c_shape="ELLIPSE" pasteExpansion="0" solderExpansion="0.4"><ellipse cx="4276.76" cy="3253" rx="3.937" ry="3.937" layerid="7" stroke-width="0"/><circle cx="4276.76" cy="3253" r="2.362" layerid="7" stroke-width="0"/></g><g c_partid="part_pad" c_etype="pinpart" c_origin="4176.5,3109" layerid="7" plated="Y" locked="0" c_rotation="180" c_width="7.874" c_height="9.8425" c_shape="RECT" pasteExpansion="0" solderExpansion="0.4"><polygon points="4180.437 3113.9213 4172.563 3113.9213 4172.563 3104.0787 4180.437 3104.0787" layerid="7" stroke-width="0"/><circle cx="4176.5" cy="3109" r="2.5591" layerid="7" stroke-width="0"/></g><g c_partid="part_pad" c_etype="pinpart" c_origin="4156.5,3109" layerid="7" plated="Y" locked="0" c_rotation="180" c_width="7.874" c_height="9.8425" c_shape="OVAL" pasteExpansion="0" solderExpansion="0.4"><polyline points="4156.5 3109.9843 4156.5 3108.0158" layerid="7" stroke-width="7.874"/><circle cx="4156.5" cy="3109" r="2.5591" layerid="7" stroke-width="0"/></g><g c_partid="part_pad" c_etype="pinpart" c_origin="4166.5,3109" layerid="7" plated="Y" locked="0" c_rotation="180" c_width="7.874" c_height="9.8425" c_shape="OVAL" pasteExpansion="0" solderExpansion="0.4"><polyline points="4166.5 3109.9843 4166.5 3108.0158" layerid="7" stroke-width="7.874"/><circle cx="4166.5" cy="3109" r="2.5591" layerid="7" stroke-width="0"/></g><g c_partid="part_pad" c_etype="pinpart" c_origin="4062.5,3107" layerid="7" plated="Y" locked="0" c_rotation="180" c_width="11.811" c_height="11.811" c_shape="RECT" pasteExpansion="0" solderExpansion="0.4"><polygon points="4068.4055 3112.9055 4056.5945 3112.9055 4056.5945 3101.0945 4068.4055 3101.0945" layerid="7" stroke-width="0"/><circle cx="4062.5" cy="3107" r="3.3465" layerid="7" stroke-width="0"/></g><g c_partid="part_pad" c_etype="pinpart" c_origin="4122.5,3107" layerid="7" plated="Y" locked="0" c_rotation="180" c_width="11.811" c_height="11.811" c_shape="ELLIPSE" pasteExpansion="0" solderExpansion="0.4"><ellipse cx="4122.5" cy="3107" rx="5.9055" ry="5.9055" layerid="7" stroke-width="0"/><circle cx="4122.5" cy="3107" r="3.3465" layerid="7" stroke-width="0"/></g><g c_partid="part_pad" c_etype="pinpart" c_origin="4079,3087" layerid="7" plated="Y" locked="0" c_rotation="0" c_width="8.5" c_height="8.5" c_shape="ELLIPSE" pasteExpansion="0" solderExpansion="0.4"><ellipse cx="4079" cy="3087" rx="4.25" ry="4.25" layerid="7" stroke-width="0"/><circle cx="4079" cy="3087" r="1.9685" layerid="7" stroke-width="0"/></g><g c_partid="part_pad" c_etype="pinpart" c_origin="4109.5,3087" layerid="7" plated="Y" locked="0" c_rotation="0" c_width="8.5" c_height="8.5" c_shape="ELLIPSE" pasteExpansion="0" solderExpansion="0.4"><ellipse cx="4109.5" cy="3087" rx="4.25" ry="4.25" layerid="7" stroke-width="0"/><circle cx="4109.5" cy="3087" r="1.9685" layerid="7" stroke-width="0"/></g><g c_partid="part_pad" c_etype="pinpart" c_origin="4248,3072" layerid="7" plated="Y" locked="0" c_rotation="180" c_width="7.4" c_height="7.4" c_shape="ELLIPSE" pasteExpansion="0" solderExpansion="0.4"><ellipse cx="4248" cy="3072" rx="3.7" ry="3.7" layerid="7" stroke-width="0"/><circle cx="4248" cy="3072" r="1.77" layerid="7" stroke-width="0"/></g><g c_partid="part_pad" c_etype="pinpart" c_origin="4208,3072" layerid="7" plated="Y" locked="0" c_rotation="180" c_width="7.4" c_height="7.4" c_shape="ELLIPSE" pasteExpansion="0" solderExpansion="0.4"><ellipse cx="4208" cy="3072" rx="3.7" ry="3.7" layerid="7" stroke-width="0"/><circle cx="4208" cy="3072" r="1.77" layerid="7" stroke-width="0"/></g><g c_partid="part_pad" c_etype="pinpart" c_origin="4248,3059" layerid="7" plated="Y" locked="0" c_rotation="180" c_width="7.4" c_height="7.4" c_shape="ELLIPSE" pasteExpansion="0" solderExpansion="0.4"><ellipse cx="4248" cy="3059" rx="3.7" ry="3.7" layerid="7" stroke-width="0"/><circle cx="4248" cy="3059" r="1.77" layerid="7" stroke-width="0"/></g><g c_partid="part_pad" c_etype="pinpart" c_origin="4208,3059" layerid="7" plated="Y" locked="0" c_rotation="180" c_width="7.4" c_height="7.4" c_shape="ELLIPSE" pasteExpansion="0" solderExpansion="0.4"><ellipse cx="4208" cy="3059" rx="3.7" ry="3.7" layerid="7" stroke-width="0"/><circle cx="4208" cy="3059" r="1.77" layerid="7" stroke-width="0"/></g><g c_partid="part_pad" c_etype="pinpart" c_origin="4124,3087" layerid="7" plated="Y" locked="0" c_rotation="0" c_width="6.3" c_height="6.3" c_shape="RECT" pasteExpansion="0" solderExpansion="0.4"><polygon points="4120.85 3083.85 4127.15 3083.85 4127.15 3090.15 4120.85 3090.15" layerid="7" stroke-width="0"/><circle cx="4124" cy="3087" r="1.75" layerid="7" stroke-width="0"/></g><g c_partid="part_pad" c_etype="pinpart" c_origin="4134,3087" layerid="7" plated="Y" locked="0" c_rotation="0" c_width="6.3" c_height="6.3" c_shape="ELLIPSE" pasteExpansion="0" solderExpansion="0.4"><ellipse cx="4134" cy="3087" rx="3.15" ry="3.15" layerid="7" stroke-width="0"/><circle cx="4134" cy="3087" r="1.75" layerid="7" stroke-width="0"/></g><g c_partid="part_pad" c_etype="pinpart" c_origin="4144,3087" layerid="7" plated="Y" locked="0" c_rotation="0" c_width="6.3" c_height="6.3" c_shape="ELLIPSE" pasteExpansion="0" solderExpansion="0.4"><ellipse cx="4144" cy="3087" rx="3.15" ry="3.15" layerid="7" stroke-width="0"/><circle cx="4144" cy="3087" r="1.75" layerid="7" stroke-width="0"/></g><g c_partid="part_pad" c_etype="pinpart" c_origin="4154,3087" layerid="7" plated="Y" locked="0" c_rotation="0" c_width="6.3" c_height="6.3" c_shape="ELLIPSE" pasteExpansion="0" solderExpansion="0.4"><ellipse cx="4154" cy="3087" rx="3.15" ry="3.15" layerid="7" stroke-width="0"/><circle cx="4154" cy="3087" r="1.75" layerid="7" stroke-width="0"/></g><g c_partid="part_pad" c_etype="pinpart" c_origin="4154,3057" layerid="7" plated="Y" locked="0" c_rotation="0" c_width="6.3" c_height="6.3" c_shape="ELLIPSE" pasteExpansion="0" solderExpansion="0.4"><ellipse cx="4154" cy="3057" rx="3.15" ry="3.15" layerid="7" stroke-width="0"/><circle cx="4154" cy="3057" r="1.75" layerid="7" stroke-width="0"/></g><g c_partid="part_pad" c_etype="pinpart" c_origin="4144,3057" layerid="7" plated="Y" locked="0" c_rotation="0" c_width="6.3" c_height="6.3" c_shape="ELLIPSE" pasteExpansion="0" solderExpansion="0.4"><ellipse cx="4144" cy="3057" rx="3.15" ry="3.15" layerid="7" stroke-width="0"/><circle cx="4144" cy="3057" r="1.75" layerid="7" stroke-width="0"/></g><g c_partid="part_pad" c_etype="pinpart" c_origin="4134,3057" layerid="7" plated="Y" locked="0" c_rotation="0" c_width="6.3" c_height="6.3" c_shape="ELLIPSE" pasteExpansion="0" solderExpansion="0.4"><ellipse cx="4134" cy="3057" rx="3.15" ry="3.15" layerid="7" stroke-width="0"/><circle cx="4134" cy="3057" r="1.75" layerid="7" stroke-width="0"/></g><g c_partid="part_pad" c_etype="pinpart" c_origin="4124,3057" layerid="7" plated="Y" locked="0" c_rotation="0" c_width="6.3" c_height="6.3" c_shape="ELLIPSE" pasteExpansion="0" solderExpansion="0.4"><ellipse cx="4124" cy="3057" rx="3.15" ry="3.15" layerid="7" stroke-width="0"/><circle cx="4124" cy="3057" r="1.75" layerid="7" stroke-width="0"/></g><g c_partid="part_pad" c_etype="pinpart" c_origin="4201,3219.5" layerid="7" plated="Y" locked="0" c_rotation="270" c_width="11.811" c_height="11.811" c_shape="RECT" pasteExpansion="0" solderExpansion="0.4"><polygon points="4206.9055 3213.5945 4206.9055 3225.4055 4195.0945 3225.4055 4195.0945 3213.5945" layerid="7" stroke-width="0"/><circle cx="4201" cy="3219.5" r="3.3465" layerid="7" stroke-width="0"/></g><g c_partid="part_pad" c_etype="pinpart" c_origin="4201,3159.5" layerid="7" plated="Y" locked="0" c_rotation="270" c_width="11.811" c_height="11.811" c_shape="ELLIPSE" pasteExpansion="0" solderExpansion="0.4"><ellipse cx="4201" cy="3159.5" rx="5.9055" ry="5.9055" layerid="7" stroke-width="0"/><circle cx="4201" cy="3159.5" r="3.3465" layerid="7" stroke-width="0"/></g><g c_partid="part_pad" c_etype="pinpart" c_origin="4192,3262" layerid="7" plated="Y" locked="0" c_rotation="270" c_width="14" c_height="14" c_shape="RECT" pasteExpansion="0" solderExpansion="0.4"><polygon points="4199 3255 4199 3269 4185 3269 4185 3255" layerid="7" stroke-width="0"/><circle cx="4192" cy="3262" r="4" layerid="7" stroke-width="0"/></g><g c_partid="part_pad" c_etype="pinpart" c_origin="4280,3066" layerid="7" plated="Y" locked="0" c_rotation="270" c_width="14" c_height="14" c_shape="RECT" pasteExpansion="0" solderExpansion="0.4"><polygon points="4287 3059 4287 3073 4273 3073 4273 3059" layerid="7" stroke-width="0"/><circle cx="4280" cy="3066" r="4" layerid="7" stroke-width="0"/></g><g c_partid="part_pad" c_etype="pinpart" c_origin="4204,3094" layerid="7" plated="Y" locked="0" c_rotation="270" c_width="6.2" c_height="6.2" c_shape="RECT" pasteExpansion="0" solderExpansion="0.4"><polygon points="4207.1 3090.9 4207.1 3097.1 4200.9 3097.1 4200.9 3090.9" layerid="7" stroke-width="0"/><circle cx="4204" cy="3094" r="1.75" layerid="7" stroke-width="0"/></g><g c_partid="part_pad" c_etype="pinpart" c_origin="4187,3155" layerid="7" plated="Y" locked="0" c_rotation="90" c_width="14" c_height="14" c_shape="RECT" pasteExpansion="0" solderExpansion="0.4"><polygon points="4180 3162 4180 3148 4194 3148 4194 3162" layerid="7" stroke-width="0"/><circle cx="4187" cy="3155" r="4" layerid="7" stroke-width="0"/></g><g c_partid="part_pad" c_etype="pinpart" c_origin="4268,3066" layerid="7" plated="Y" locked="0" c_rotation="270" c_width="14" c_height="14" c_shape="RECT" pasteExpansion="0" solderExpansion="0.4"><polygon points="4275 3059 4275 3073 4261 3073 4261 3059" layerid="7" stroke-width="0"/><circle cx="4268" cy="3066" r="4" layerid="7" stroke-width="0"/></g><g c_partid="part_pad" c_etype="pinpart" c_origin="4204,3116" layerid="7" plated="Y" locked="0" c_rotation="270" c_width="6.2" c_height="6.2" c_shape="RECT" pasteExpansion="0" solderExpansion="0.4"><polygon points="4207.1 3112.9 4207.1 3119.1 4200.9 3119.1 4200.9 3112.9" layerid="7" stroke-width="0"/><circle cx="4204" cy="3116" r="1.75" layerid="7" stroke-width="0"/></g><g c_partid="part_pad" c_etype="pinpart" c_origin="4187,3076" layerid="7" plated="Y" locked="0" c_rotation="270" c_width="6.2" c_height="6.2" c_shape="RECT" pasteExpansion="0" solderExpansion="0.4"><polygon points="4190.1 3072.9 4190.1 3079.1 4183.9 3079.1 4183.9 3072.9" layerid="7" stroke-width="0"/><circle cx="4187" cy="3076" r="1.75" layerid="7" stroke-width="0"/></g><g c_partid="part_pad" c_etype="pinpart" c_origin="4187,3059" layerid="7" plated="Y" locked="0" c_rotation="270" c_width="6.2" c_height="6.2" c_shape="RECT" pasteExpansion="0" solderExpansion="0.4"><polygon points="4190.1 3055.9 4190.1 3062.1 4183.9 3062.1 4183.9 3055.9" layerid="7" stroke-width="0"/><circle cx="4187" cy="3059" r="1.75" layerid="7" stroke-width="0"/></g><g c_partid="part_pad" c_etype="pinpart" c_origin="4083,3154" layerid="7" plated="Y" locked="0" c_rotation="270" c_width="11.811" c_height="11.811" c_shape="ELLIPSE" pasteExpansion="0" solderExpansion="0.4"><ellipse cx="4083" cy="3154" rx="5.9055" ry="5.9055" layerid="7" stroke-width="0"/><circle cx="4083" cy="3154" r="1.8" layerid="7" stroke-width="0"/></g><g c_partid="part_pad" c_etype="pinpart" c_origin="4083,3194" layerid="7" plated="Y" locked="0" c_rotation="270" c_width="11.811" c_height="11.811" c_shape="ELLIPSE" pasteExpansion="0" solderExpansion="0.4"><ellipse cx="4083" cy="3194" rx="5.9055" ry="5.9055" layerid="7" stroke-width="0"/><circle cx="4083" cy="3194" r="1.8" layerid="7" stroke-width="0"/></g><g c_partid="part_pad" c_etype="pinpart" c_origin="4133,3139" layerid="7" plated="Y" locked="0" c_rotation="270" c_width="15.748" c_height="15.748" c_shape="ELLIPSE" pasteExpansion="0" solderExpansion="0.4"><ellipse cx="4133" cy="3139" rx="7.874" ry="7.874" layerid="7" stroke-width="0"/><circle cx="4133" cy="3139" r="1.8" layerid="7" stroke-width="0"/></g><g c_partid="part_pad" c_etype="pinpart" c_origin="4143,3209" layerid="7" plated="Y" locked="0" c_rotation="270" c_width="15.748" c_height="15.748" c_shape="ELLIPSE" pasteExpansion="0" solderExpansion="0.4"><ellipse cx="4143" cy="3209" rx="7.874" ry="7.874" layerid="7" stroke-width="0"/><circle cx="4143" cy="3209" r="1.8" layerid="7" stroke-width="0"/></g><g c_partid="part_pad" c_etype="pinpart" c_origin="4166,3209" layerid="7" plated="Y" locked="0" c_rotation="270" c_width="15.748" c_height="15.748" c_shape="ELLIPSE" pasteExpansion="0" solderExpansion="0.4"><ellipse cx="4166" cy="3209" rx="7.874" ry="7.874" layerid="7" stroke-width="0"/><circle cx="4166" cy="3209" r="1.8" layerid="7" stroke-width="0"/></g><g c_partid="part_pad" c_etype="pinpart" c_origin="4178.54,3250" layerid="7" plated="Y" locked="0" c_rotation="270" c_width="14" c_height="14" c_shape="ELLIPSE" pasteExpansion="0" solderExpansion="0.4"><ellipse cx="4178.54" cy="3250" rx="7" ry="7" layerid="7" stroke-width="0"/><circle cx="4178.54" cy="3250" r="3.6" layerid="7" stroke-width="0"/></g><g c_partid="part_pad" c_etype="pinpart" c_origin="4091.46,3250" layerid="7" plated="Y" locked="0" c_rotation="270" c_width="14" c_height="14" c_shape="ELLIPSE" pasteExpansion="0" solderExpansion="0.4"><ellipse cx="4091.46" cy="3250" rx="7" ry="7" layerid="7" stroke-width="0"/><circle cx="4091.46" cy="3250" r="3.6" layerid="7" stroke-width="0"/></g></g></svg>